<svg width="32" height="32" viewBox="0 0 32 32" fill="none" xmlns="http://www.w3.org/2000/svg">
<g clip-path="url(#clip0_363_11)">
<circle cx="16" cy="16" r="16" fill="white"/>
<path d="M25.0314 5.08313C24.9841 5.13549 24.8844 5.30827 24.8056 5.46534C24.7269 5.62242 24.6324 5.76902 24.6009 5.78996C24.5694 5.8109 24.3383 5.83185 24.0863 5.83185H23.6296L23.3775 5.44963C23.0888 5.01506 23.01 4.99412 22.548 5.20879L22.2855 5.33445L22.2592 5.84755L22.233 6.35542L21.9704 6.57009C21.4979 6.96277 21.4664 6.96801 21.0254 6.75334C20.6369 6.57533 20.6369 6.57009 20.5109 6.67481C20.3586 6.78999 20.0541 7.25074 20.0541 7.36069C20.0541 7.40258 20.1801 7.57536 20.3376 7.74814C20.6264 8.06752 20.6894 8.2403 20.6106 8.48639C20.5844 8.54398 20.5161 8.60681 20.4584 8.62252C20.3953 8.63822 20.2168 8.69058 20.0646 8.74818C19.8073 8.83718 19.7863 8.85289 19.8126 8.98379C19.8283 9.06232 19.8231 9.14086 19.7968 9.15133C19.7128 9.20369 19.6918 8.90001 19.7706 8.77435L19.8441 8.65917H13.1341C8.26182 8.65917 6.3717 8.67487 6.24044 8.71676C6.00418 8.80053 5.78367 9.00473 5.66291 9.26128C5.5684 9.46024 5.56315 9.72727 5.56315 15.0206C5.56315 20.2931 5.5684 20.581 5.66291 20.78C5.77842 21.0418 6.02518 21.2565 6.2877 21.3298C6.41371 21.3612 7.68954 21.3821 9.83167 21.3821C11.6693 21.3821 13.1761 21.3978 13.1761 21.4188C13.1761 21.4449 13.0029 21.7905 12.7876 22.1937L12.3991 22.9267L8.36683 22.9528C5.28488 22.9738 4.30307 22.9947 4.21382 23.0419C4.07731 23.1256 3.96705 23.4345 4.00905 23.6126C4.03005 23.6859 4.10881 23.8063 4.18231 23.8743L4.31882 24H15.6018H26.8848L27.0108 23.8743C27.2365 23.6492 27.247 23.356 27.0423 23.1047L26.9425 22.979L22.8735 22.9633L18.8045 22.9528L18.4055 22.1937C18.185 21.7748 18.0064 21.424 18.0064 21.4083C18.0064 21.3926 19.5133 21.3821 21.3562 21.3821C23.493 21.3821 24.7689 21.3612 24.8949 21.3298C25.1574 21.2565 25.4042 21.0418 25.5197 20.78C25.6089 20.5863 25.6194 20.3664 25.6194 17.4448C25.6194 15.1149 25.6037 14.319 25.5564 14.3033C25.5249 14.2929 25.6404 14.23 25.8137 14.1672C26.2547 14.0049 26.2705 13.9787 26.2232 13.4551L26.1865 13.0153L26.554 12.7221C26.7535 12.5598 26.953 12.4289 26.9898 12.4289C27.0318 12.4289 27.2313 12.497 27.4308 12.5808C27.7038 12.696 27.8193 12.7221 27.8928 12.6855C27.9978 12.6279 28.4021 12.031 28.4021 11.9315C28.4021 11.9001 28.2603 11.7273 28.0871 11.5493C27.9138 11.3765 27.7721 11.209 27.7721 11.1828C27.7721 11.1566 27.8193 10.9996 27.8771 10.832C27.9348 10.6645 27.9821 10.4865 27.9821 10.4393C27.9821 10.3032 28.0766 10.2508 28.4809 10.1461C28.6856 10.0938 28.8851 10.0205 28.9271 9.98382C29.0269 9.89481 29.0216 9.16704 28.9271 9.05185C28.8904 9.00473 28.7644 8.97331 28.6436 8.96808C28.5281 8.96808 28.3339 8.93666 28.2236 8.90525C28.0346 8.84766 28.0083 8.811 27.8456 8.42356C27.7458 8.19318 27.6671 7.97852 27.6671 7.94187C27.6671 7.90522 27.7983 7.72196 27.9558 7.53347C28.1133 7.35022 28.2446 7.17221 28.2446 7.13556C28.2446 6.97848 27.7458 6.40778 27.6041 6.40778C27.5516 6.40778 27.3835 6.47585 27.2313 6.56486C27.0738 6.64863 26.9005 6.72193 26.8375 6.72193C26.7272 6.72193 26.0552 6.29783 25.9712 6.17741C25.9502 6.14599 25.9502 5.93133 25.966 5.70095C26.0027 5.21402 26.0027 5.20355 25.5564 5.07789C25.1837 4.97318 25.1311 4.97318 25.0314 5.08313ZM25.0104 6.54391C26.197 6.84759 27.163 7.90522 27.3835 9.13039C27.6356 10.5702 26.6957 12.1462 25.2887 12.6384C24.8424 12.7954 24.3488 12.8478 23.7713 12.7954C23.3303 12.7588 23.199 12.7221 22.8053 12.5336C22.2592 12.2719 21.7184 11.7587 21.3877 11.1985C21.2039 10.8896 21.1514 10.832 21.0464 10.8477C20.8416 10.8791 20.7209 11.0362 20.7261 11.2561C20.7314 11.4132 20.6946 11.4917 20.5319 11.6697C20.4216 11.7902 20.2903 11.9525 20.2378 12.0258C20.1486 12.1671 20.1486 12.1724 20.2903 12.3923C20.4846 12.6855 20.6894 12.9001 20.7786 12.9001C20.8206 12.9001 21.0254 12.8164 21.2354 12.7117L21.6134 12.5179L22.0124 12.8007L22.4167 13.0834V13.5127V13.9421L22.2487 14.0154C21.8444 14.1881 21.7657 14.2091 21.4559 14.2091C20.9729 14.2091 20.5476 14.0468 20.2063 13.7274C19.7653 13.319 19.5815 12.9106 19.5815 12.3347C19.5815 11.654 19.9753 11.0362 20.6316 10.6802C21.0359 10.4603 21.5977 10.4289 22.0597 10.6016C22.3327 10.7011 22.464 10.7954 22.821 11.1566C23.2515 11.5912 23.4353 11.6854 23.5035 11.5074C23.577 11.3137 23.1203 10.7221 22.6845 10.4393C21.7762 9.8634 20.5634 9.98906 19.8021 10.7482C19.214 11.3347 19.0093 12.2771 19.2875 13.1043C19.6235 14.0887 20.4531 14.6227 21.6659 14.628C21.9652 14.628 22.4797 14.4604 22.6267 14.3138C22.716 14.2248 22.737 14.2248 23.0048 14.3033C23.22 14.3662 23.2515 14.3923 23.157 14.4081C23.0888 14.4185 22.9208 14.4971 22.7842 14.5808C21.8024 15.1829 20.5004 15.073 19.6656 14.3138C18.1482 12.9263 18.6522 10.5388 20.6106 9.83198C21.2354 9.60161 22.0755 9.67491 22.6687 10.0048C23.1938 10.298 23.6926 10.8373 23.9026 11.3399C23.9708 11.5022 24.0128 11.5388 24.1336 11.5388C24.3961 11.5388 24.4381 11.476 24.3383 11.2299C24.2911 11.1095 24.2543 10.9786 24.2543 10.942C24.2543 10.9001 24.3646 10.7378 24.4959 10.5807L24.7321 10.2875L24.5169 9.99953C24.4014 9.83722 24.2806 9.70632 24.2543 9.70632C24.2281 9.70632 24.0601 9.77962 23.8868 9.86863L23.577 10.0362L23.2305 9.81104C23.0415 9.68538 22.863 9.54925 22.842 9.50213C22.8158 9.45501 22.8158 9.27699 22.842 9.10421C22.863 8.93143 22.8735 8.77959 22.8578 8.76388C22.842 8.75341 22.7055 8.70105 22.5585 8.65393C22.191 8.53874 22.1752 8.42879 22.4955 8.18795C23.325 7.56489 23.5823 7.45494 24.1913 7.45494C24.8844 7.45494 25.3412 7.6539 25.8189 8.15653C26.6537 9.03091 26.6432 10.2927 25.7979 11.1776C24.9316 12.0781 23.6138 12.1043 22.674 11.2352C22.4115 10.9943 22.3275 10.9472 22.0545 10.9001C21.8759 10.8687 21.7184 10.853 21.7027 10.8739C21.6502 10.9263 21.9179 11.3451 22.1647 11.6017C22.6582 12.1043 23.1833 12.3504 23.9498 12.4394C24.5904 12.5127 24.9684 12.4551 25.4987 12.1933C26.0657 11.9106 26.491 11.476 26.7325 10.9106C26.9635 10.3713 27.0633 9.85816 27.016 9.41836C26.8218 7.54395 25.0261 6.40778 23.2148 7.01513C22.653 7.20886 22.0282 7.74291 21.7394 8.28743C21.5714 8.61205 21.4034 9.11992 21.4507 9.18798C21.4664 9.21416 21.4139 9.26128 21.3404 9.28746C21.2354 9.32935 21.1566 9.31888 21.0201 9.25605C20.9256 9.20892 20.8574 9.15133 20.8731 9.11992C20.8889 9.09374 20.9309 9.08327 20.9624 9.09374C20.9991 9.10421 21.0516 9.00473 21.0884 8.84766C21.3509 7.79526 22.3065 6.83712 23.388 6.53868C23.7556 6.4392 24.6166 6.44443 25.0104 6.54391ZM19.8651 9.31888C19.9228 9.46548 19.8966 9.60161 19.8073 9.67491C19.7548 9.71679 19.6078 9.83722 19.487 9.9367C19.361 10.0414 19.2193 10.1252 19.1773 10.1252C19.1353 10.1252 18.9725 10.0676 18.815 9.99429C18.6575 9.92099 18.5052 9.8634 18.479 9.8634C18.4212 9.8634 18.0589 10.3817 18.0589 10.4655C18.0589 10.4917 18.1797 10.6383 18.332 10.7901L18.5997 11.0624L18.4842 11.4237C18.353 11.8478 18.2742 11.9315 17.9592 11.9787C17.5707 12.0362 17.5339 12.0781 17.5339 12.4237C17.5339 12.6069 17.5602 12.7483 17.6022 12.7797C17.6337 12.8111 17.8069 12.8583 17.9802 12.8949C18.1535 12.9263 18.3215 12.9839 18.353 13.0206C18.4212 13.0939 18.6365 13.6646 18.6365 13.7641C18.6365 13.8059 18.5315 13.9473 18.4002 14.0887C18.2742 14.2248 18.164 14.3662 18.164 14.4028C18.164 14.4709 18.5682 14.9945 18.626 14.9945C18.647 14.9945 18.7887 14.9212 18.9463 14.8374C19.1038 14.7484 19.2613 14.6803 19.3033 14.6803C19.4135 14.6803 19.9911 15.1149 20.0226 15.2196C20.0331 15.2772 20.0278 15.45 19.9963 15.6123C19.9701 15.7746 19.9701 15.9264 19.9911 15.9421C20.0541 16.005 20.6474 16.1882 20.7051 16.1673C20.7366 16.1568 20.8101 16.0364 20.8679 15.9055C21.0411 15.5076 21.1094 15.4657 21.5452 15.4657C21.9704 15.4657 22.0072 15.4866 22.2067 15.8741C22.3432 16.1359 22.38 16.1673 22.506 16.0992C22.5585 16.073 22.716 16.0102 22.8578 15.9631C23.1098 15.8741 23.1098 15.8688 23.0783 15.6803C22.9733 15.0573 22.947 15.1411 23.3145 14.8426C23.4983 14.696 23.6873 14.5756 23.7293 14.5756C23.7766 14.5756 23.9393 14.6332 24.0863 14.7065C24.2386 14.7798 24.3804 14.8374 24.4119 14.8374C24.4696 14.8374 24.8319 14.3033 24.8319 14.2196C24.8319 14.1986 24.7059 14.0415 24.5484 13.8792C24.2071 13.518 24.0653 13.4918 23.8186 13.7536C23.7241 13.8478 23.6191 13.9682 23.5823 14.0258C23.5455 14.0834 23.577 14.0049 23.6506 13.8531C23.7241 13.7012 23.8133 13.5651 23.8501 13.5546C23.8868 13.5441 24.0968 13.5232 24.3226 13.5023C24.7321 13.4708 24.7321 13.4708 24.8896 13.6384L25.0419 13.8007V16.7013V19.6019H15.6175H6.19319V14.4185V9.2351H13.0134C19.1825 9.2351 19.8336 9.24557 19.8651 9.31888ZM15.7698 20.3402C16.1373 20.5077 16.0113 21.1203 15.6123 21.1203C15.208 21.1203 15.0768 20.4868 15.4495 20.335C15.607 20.2721 15.6175 20.2721 15.7698 20.3402ZM23.6243 20.4973C23.6243 20.6229 23.5035 20.6072 23.4773 20.4763C23.4668 20.424 23.493 20.3873 23.5403 20.3873C23.5928 20.3873 23.6243 20.4344 23.6243 20.4973ZM24.1178 20.4292C24.1598 20.4973 24.0601 20.6125 23.9971 20.5758C23.9131 20.5234 23.9236 20.3873 24.0128 20.3873C24.0548 20.3873 24.1021 20.4083 24.1178 20.4292ZM24.5694 20.4973C24.5694 20.6229 24.4486 20.6072 24.4224 20.4763C24.4119 20.424 24.4381 20.3873 24.4854 20.3873C24.5379 20.3873 24.5694 20.4344 24.5694 20.4973Z" fill="url(#paint0_linear_363_11)"/>
</g>
<defs>
<linearGradient id="paint0_linear_363_11" x1="16.5" y1="24" x2="16.5" y2="5" gradientUnits="userSpaceOnUse">
<stop stop-color="#3492D4"/>
<stop offset="1" stop-color="#35C0E3"/>
</linearGradient>
<clipPath id="clip0_363_11">
<rect width="32" height="32" fill="white"/>
</clipPath>
</defs>
</svg>
