<svg width="120" height="120" viewBox="0 0 120 120" fill="none" xmlns="http://www.w3.org/2000/svg">
<g opacity="0.2">
<path d="M4.14061 97.7534L15.2486 108.861C16.4657 110.078 17.7144 110.698 18.9948 110.721C20.258 110.726 21.459 110.159 22.598 109.02C23.7539 107.864 24.3292 106.655 24.3239 105.392C24.3015 104.111 23.6817 102.862 22.4646 101.645L11.3566 90.5374L14.9519 86.9421L26.0342 98.0244C27.5598 99.55 28.5225 101.176 28.9224 102.902C29.3221 104.593 29.2352 106.257 28.6617 107.893C28.1051 109.513 27.1554 110.994 25.8125 112.337C24.4866 113.663 23.014 114.604 21.3947 115.16C19.7923 115.7 18.1539 115.761 16.4792 115.345C14.7875 114.911 13.1788 113.931 11.6531 112.405L0.57085 101.323L4.14061 97.7534Z" fill="#BDBDBD"/>
<path d="M51.571 86.2183L48.0013 89.788L27.6018 85.5545L39.9183 97.871L36.3486 101.441L18.3752 83.4674L21.9449 79.8976L42.3701 84.1569L30.0279 71.8147L33.5977 68.2449L51.571 86.2183Z" fill="#BDBDBD"/>
<path d="M44.2478 57.6462L46.8476 60.2461L43.3207 63.773L58.6685 79.1208L55.0987 82.6906L37.1511 64.7429L44.2478 57.6462Z" fill="#BDBDBD"/>
<path d="M47.8175 54.0765L65.7652 72.0241L62.1954 75.5939L46.8476 60.2461L44.2478 57.6462L47.8175 54.0765Z" fill="#BDBDBD"/>
<path d="M84.5146 53.2747L80.9448 56.8445L60.5454 52.6109L72.8619 64.9274L69.2921 68.4972L51.3187 50.5238L54.8885 46.9541L75.3137 51.2133L62.9715 38.8711L66.5412 35.3013L84.5146 53.2747Z" fill="#BDBDBD"/>
<path d="M81.0844 20.8096L83.99 23.7152L76.57 31.1352L81.1726 35.7378L86.8587 30.0517L89.7128 32.9058L84.0267 38.5919L91.6121 46.1772L88.0423 49.747L70.0946 31.7993L81.0844 20.8096Z" fill="#BDBDBD"/>
<path d="M110.005 28.1445C108.339 29.8104 106.415 30.946 104.232 31.5514C102.05 32.1568 99.8564 32.1732 97.652 31.6006C95.4304 31.0109 93.4368 29.8333 91.6712 28.0676C89.9227 26.3192 88.7622 24.3427 88.1896 22.1382C87.5999 19.9167 87.6077 17.7146 88.2131 15.5322C88.8185 13.3498 89.9541 11.4256 91.62 9.75972C93.3029 8.07683 95.2271 6.94121 97.3925 6.35283C99.5749 5.74746 101.768 5.74812 103.973 6.35482C106.177 6.92737 108.154 8.0879 109.902 9.83638C111.668 11.602 112.846 13.5956 113.435 15.8172C114.025 18.0046 114.017 20.1896 113.412 22.372C112.806 24.5544 111.671 26.4786 110.005 28.1445ZM106.791 24.9304C107.862 23.8594 108.565 22.676 108.901 21.3801C109.22 20.0671 109.154 18.7268 108.705 17.3593C108.255 15.9918 107.431 14.7081 106.231 13.5081C105.031 12.3082 103.756 11.492 102.405 11.0596C101.038 10.61 99.706 10.5532 98.4101 10.8892C97.1142 11.2252 95.9308 11.9286 94.8598 12.9996C93.7889 14.0705 93.077 15.2624 92.724 16.5753C92.388 17.8712 92.4448 19.203 92.8944 20.5704C93.3268 21.9208 94.143 23.1959 95.3429 24.3959C96.5428 25.5958 97.8266 26.4206 99.1941 26.8701C100.562 27.3197 101.902 27.385 103.215 27.0662C104.528 26.7133 105.72 26.0013 106.791 24.9304Z" fill="#BDBDBD"/>
<circle cx="35.669" cy="52.2756" r="5.5" transform="rotate(-45 35.669 52.2756)" fill="#BDBDBD"/>
</g>
</svg>
