<svg width="240" height="150" viewBox="0 0 240 150" fill="none" xmlns="http://www.w3.org/2000/svg">
<path fill-rule="evenodd" clip-rule="evenodd" d="M0 30C0 22.0435 3.16071 14.4129 8.7868 8.7868C14.4129 3.1607 22.0435 2.07768e-07 30 2.07768e-07H142.5C149.776 -0.00085572 156.805 2.64289 162.277 7.43892C167.749 12.2349 171.292 18.8563 172.245 26.07L218.895 5.34C221.178 4.32257 223.68 3.89195 226.172 4.08728C228.664 4.28261 231.068 5.09769 233.165 6.45844C235.262 7.81918 236.986 9.68244 238.179 11.8789C239.373 14.0753 239.999 16.5352 240 19.035V130.965C239.998 133.463 239.372 135.921 238.179 138.115C236.986 140.31 235.264 142.172 233.169 143.532C231.074 144.893 228.673 145.708 226.183 145.905C223.693 146.102 221.193 145.674 218.91 144.66L172.245 123.93C171.292 131.144 167.749 137.765 162.277 142.561C156.805 147.357 149.776 150.001 142.5 150H30C22.0435 150 14.4129 146.839 8.7868 141.213C3.16071 135.587 0 127.956 0 120V30Z" fill="url(#paint0_linear_315_468)"/>
<defs>
<linearGradient id="paint0_linear_315_468" x1="120" y1="0" x2="120" y2="150" gradientUnits="userSpaceOnUse">
<stop stop-color="#35C0E3"/>
<stop offset="1" stop-color="#3492D4"/>
</linearGradient>
</defs>
</svg>
