<svg width="200" height="150" viewBox="0 0 200 150" fill="none" xmlns="http://www.w3.org/2000/svg">
<path d="M87.5 150C87.5 150 75 150 75 137.5C75 125 87.5 87.5 137.5 87.5C187.5 87.5 200 125 200 137.5C200 150 187.5 150 187.5 150H87.5ZM137.5 75C147.446 75 156.984 71.0491 164.017 64.0165C171.049 56.9839 175 47.4456 175 37.5C175 27.5544 171.049 18.0161 164.017 10.9835C156.984 3.95088 147.446 0 137.5 0C127.554 0 118.016 3.95088 110.983 10.9835C103.951 18.0161 100 27.5544 100 37.5C100 47.4456 103.951 56.9839 110.983 64.0165C118.016 71.0491 127.554 75 137.5 75ZM65.2 150C63.3469 146.098 62.4228 141.819 62.5 137.5C62.5 120.562 71 103.125 86.7 91C78.8636 88.5854 70.6994 87.4047 62.5 87.5C12.5 87.5 0 125 0 137.5C0 150 12.5 150 12.5 150H65.2ZM56.25 75C64.538 75 72.4866 71.7076 78.3471 65.8471C84.2076 59.9866 87.5 52.038 87.5 43.75C87.5 35.462 84.2076 27.5134 78.3471 21.6529C72.4866 15.7924 64.538 12.5 56.25 12.5C47.962 12.5 40.0134 15.7924 34.1529 21.6529C28.2924 27.5134 25 35.462 25 43.75C25 52.038 28.2924 59.9866 34.1529 65.8471C40.0134 71.7076 47.962 75 56.25 75Z" fill="url(#paint0_linear_315_463)"/>
<defs>
<linearGradient id="paint0_linear_315_463" x1="100" y1="0" x2="100" y2="150" gradientUnits="userSpaceOnUse">
<stop stop-color="#35C0E3"/>
<stop offset="1" stop-color="#3492D4"/>
</linearGradient>
</defs>
</svg>
