<svg width="134" height="100" viewBox="0 0 134 100" fill="none" xmlns="http://www.w3.org/2000/svg">
<path d="M58.3333 100C58.3333 100 50 100 50 91.6667C50 83.3333 58.3333 58.3333 91.6667 58.3333C125 58.3333 133.333 83.3333 133.333 91.6667C133.333 100 125 100 125 100H58.3333ZM91.6667 50C98.2971 50 104.656 47.3661 109.344 42.6777C114.033 37.9893 116.667 31.6304 116.667 25C116.667 18.3696 114.033 12.0107 109.344 7.32233C104.656 2.63392 98.2971 0 91.6667 0C85.0363 0 78.6774 2.63392 73.989 7.32233C69.3006 12.0107 66.6667 18.3696 66.6667 25C66.6667 31.6304 69.3006 37.9893 73.989 42.6777C78.6774 47.3661 85.0363 50 91.6667 50ZM43.4667 100C42.2313 97.3985 41.6152 94.5462 41.6667 91.6667C41.6667 80.375 47.3333 68.75 57.8 60.6667C52.5758 59.057 47.1329 58.2698 41.6667 58.3333C8.33333 58.3333 0 83.3333 0 91.6667C0 100 8.33333 100 8.33333 100H43.4667ZM37.5 50C43.0253 50 48.3244 47.8051 52.2314 43.8981C56.1384 39.991 58.3333 34.692 58.3333 29.1667C58.3333 23.6413 56.1384 18.3423 52.2314 14.4353C48.3244 10.5283 43.0253 8.33333 37.5 8.33333C31.9747 8.33333 26.6756 10.5283 22.7686 14.4353C18.8616 18.3423 16.6667 23.6413 16.6667 29.1667C16.6667 34.692 18.8616 39.991 22.7686 43.8981C26.6756 47.8051 31.9747 50 37.5 50Z" fill="url(#paint0_linear_315_463)"/>
<defs>
<linearGradient id="paint0_linear_315_463" x1="66.6667" y1="0" x2="66.6667" y2="100" gradientUnits="userSpaceOnUse">
<stop stop-color="#35C0E3"/>
<stop offset="1" stop-color="#3492D4"/>
</linearGradient>
</defs>
</svg>
