<svg width="200" height="150" viewBox="0 0 200 150" fill="none" xmlns="http://www.w3.org/2000/svg">
<path d="M168.75 12.5C170.408 12.5 171.997 13.1585 173.169 14.3306C174.342 15.5027 175 17.0924 175 18.75V112.5H25V18.75C25 17.0924 25.6585 15.5027 26.8306 14.3306C28.0027 13.1585 29.5924 12.5 31.25 12.5H168.75ZM31.25 0C26.2772 0 21.5081 1.97544 17.9917 5.49175C14.4754 9.00806 12.5 13.7772 12.5 18.75V125H187.5V18.75C187.5 13.7772 185.525 9.00806 182.008 5.49175C178.492 1.97544 173.723 0 168.75 0H31.25ZM0 131.25H200C200 136.223 198.025 140.992 194.508 144.508C190.992 148.025 186.223 150 181.25 150H18.75C13.7772 150 9.00805 148.025 5.49175 144.508C1.97544 140.992 0 136.223 0 131.25Z" fill="url(#paint0_linear_315_458)"/>
<defs>
<linearGradient id="paint0_linear_315_458" x1="100" y1="0" x2="100" y2="150" gradientUnits="userSpaceOnUse">
<stop stop-color="#35C0E3"/>
<stop offset="1" stop-color="#3492D4"/>
</linearGradient>
</defs>
</svg>
