<svg width="150" height="113" viewBox="0 0 150 113" fill="none" xmlns="http://www.w3.org/2000/svg">
<path d="M126.562 9.375C127.806 9.375 128.998 9.86886 129.877 10.7479C130.756 11.627 131.25 12.8193 131.25 14.0625V84.375H18.75V14.0625C18.75 12.8193 19.2439 11.627 20.1229 10.7479C21.002 9.86886 22.1943 9.375 23.4375 9.375H126.562ZM23.4375 0C19.7079 0 16.131 1.48158 13.4938 4.11881C10.8566 6.75604 9.375 10.3329 9.375 14.0625V93.75H140.625V14.0625C140.625 10.3329 139.143 6.75604 136.506 4.11881C133.869 1.48158 130.292 0 126.562 0H23.4375ZM0 98.4375H150C150 102.167 148.518 105.744 145.881 108.381C143.244 111.018 139.667 112.5 135.938 112.5H14.0625C10.3329 112.5 6.75604 111.018 4.11881 108.381C1.48158 105.744 0 102.167 0 98.4375Z" fill="url(#paint0_linear_315_458)"/>
<defs>
<linearGradient id="paint0_linear_315_458" x1="75" y1="0" x2="75" y2="112.5" gradientUnits="userSpaceOnUse">
<stop stop-color="#35C0E3"/>
<stop offset="1" stop-color="#3492D4"/>
</linearGradient>
</defs>
</svg>
