<svg width="122.5" height="37.5" viewBox="0 0 245 75" fill="none" xmlns="http://www.w3.org/2000/svg">
<path d="M108.048 37.3636V53.0727C108.048 54.7939 108.493 56.1152 109.383 57.0364C110.272 57.9333 111.522 58.3818 113.133 58.3818C114.768 58.3818 116.03 57.9333 116.919 57.0364C117.809 56.1152 118.253 54.7939 118.253 53.0727V37.3636H123.338V53.0364C123.338 55.1939 122.869 57.0242 121.931 58.5273C121.018 60.0061 119.78 61.1212 118.217 61.8727C116.679 62.6242 114.96 63 113.061 63C111.186 63 109.479 62.6242 107.94 61.8727C106.426 61.1212 105.224 60.0061 104.334 58.5273C103.445 57.0242 103 55.1939 103 53.0364V37.3636H108.048Z" fill="white"/>
<path d="M149.743 62.7455H144.695L133.264 45.3273V62.7455H128.216V37.3273H133.264L144.695 54.7818V37.3273H149.743V62.7455Z" fill="white"/>
<path d="M164.769 37.3636V41.0404H159.781V62.7455H154.732V37.3636H164.769Z" fill="white"/>
<path d="M169.817 37.3636V62.7455H164.769V41.0404V37.3636H169.817Z" fill="white"/>
<path d="M196.333 62.7455H191.284L179.853 45.3273V62.7455H174.805V37.3273H179.853L191.284 54.7818V37.3273H196.333V62.7455Z" fill="white"/>
<path d="M216.863 37.3636V41.4727H206.37V47.9818H214.411V52.0182H206.37V62.7455H201.321V37.3636H216.863Z" fill="white"/>
<path d="M232.127 63C229.771 63 227.607 62.4424 225.636 61.3273C223.665 60.2121 222.102 58.6727 220.948 56.7091C219.794 54.7212 219.217 52.4788 219.217 49.9818C219.217 47.5091 219.794 45.2909 220.948 43.3273C222.102 41.3394 223.665 39.7879 225.636 38.6727C227.607 37.5576 229.771 37 232.127 37C234.507 37 236.67 37.5576 238.617 38.6727C240.589 39.7879 242.139 41.3394 243.269 43.3273C244.423 45.2909 245 47.5091 245 49.9818C245 52.4788 244.423 54.7212 243.269 56.7091C242.139 58.6727 240.589 60.2121 238.617 61.3273C236.646 62.4424 234.483 63 232.127 63ZM232.127 58.4545C233.641 58.4545 234.975 58.1152 236.129 57.4364C237.283 56.7333 238.185 55.7394 238.834 54.4545C239.483 53.1697 239.807 51.6788 239.807 49.9818C239.807 48.2848 239.483 46.8061 238.834 45.5455C238.185 44.2606 237.283 43.2788 236.129 42.6C234.975 41.9212 233.641 41.5818 232.127 41.5818C230.612 41.5818 229.266 41.9212 228.088 42.6C226.934 43.2788 226.032 44.2606 225.383 45.5455C224.734 46.8061 224.41 48.2848 224.41 49.9818C224.41 51.6788 224.734 53.1697 225.383 54.4545C226.032 55.7394 226.934 56.7333 228.088 57.4364C229.266 58.1152 230.612 58.4545 232.127 58.4545Z" fill="white"/>
<circle cx="162.5" cy="27.5" r="5.5" fill="url(#paint0_linear_202_2)"/>
<path d="M83.2843 0.328145C83.0972 0.53482 82.7022 1.21685 82.3903 1.83688C82.0784 2.4569 81.7042 3.03559 81.5794 3.11826C81.4547 3.20093 80.5399 3.2836 79.5419 3.2836H77.733L76.735 1.77487C75.5915 0.0594665 75.2797 -0.0232037 73.45 0.824166L72.4105 1.32019L72.3065 3.34561L72.2025 5.35036L71.163 6.19773C69.2918 7.74779 69.167 7.76846 67.4205 6.92109C65.882 6.2184 65.882 6.19773 65.383 6.61108C64.78 7.06577 63.5741 8.88451 63.5741 9.31853C63.5741 9.48387 64.0731 10.1659 64.6969 10.8479C65.8404 12.1086 66.0899 12.7907 65.778 13.7621C65.6741 13.9894 65.4038 14.2374 65.1751 14.2994C64.9256 14.3614 64.2187 14.5681 63.6157 14.7954C62.5969 15.1468 62.5138 15.2088 62.6177 15.7255C62.6801 16.0355 62.6593 16.3455 62.5554 16.3868C62.2227 16.5935 62.1395 15.3948 62.4514 14.8988L62.7425 14.4441H36.1712C16.8768 14.4441 9.39195 14.5061 8.87216 14.6714C7.93655 15.0021 7.06332 15.8081 6.58512 16.8208C6.21087 17.6062 6.19008 18.6603 6.19008 39.5552C6.19008 60.3674 6.21087 61.5041 6.58512 62.2895C7.04253 63.3228 8.01972 64.1702 9.05928 64.4595C9.55828 64.5836 14.6106 64.6662 23.0934 64.6662C30.3704 64.6662 36.3375 64.7282 36.3375 64.8109C36.3375 64.9142 35.6514 66.2783 34.7989 67.8697L33.2604 70.7632L17.2926 70.8665C5.08814 70.9492 1.20016 71.0318 0.846711 71.2178C0.306137 71.5485 -0.130481 72.7679 0.0358495 73.4706C0.119015 73.7599 0.430885 74.2353 0.721963 74.504L1.26254 75H45.9431H90.6236L91.1226 74.504C92.0167 73.6153 92.0582 72.4579 91.2474 71.4658L90.8523 70.9698L74.7391 70.9078L58.6258 70.8665L57.0457 67.8697C56.1724 66.2163 55.4655 64.8316 55.4655 64.7696C55.4655 64.7076 61.4326 64.6662 68.7304 64.6662C77.1925 64.6662 82.2447 64.5836 82.7437 64.4595C83.7833 64.1702 84.7605 63.3228 85.2179 62.2895C85.5714 61.5248 85.6129 60.6567 85.6129 49.1242C85.6129 39.9272 85.5506 36.7857 85.3634 36.7237C85.2387 36.6824 85.6961 36.4344 86.3822 36.1863C88.1287 35.5456 88.1911 35.4423 88.0039 33.3756L87.8584 31.6395L89.3138 30.4821C90.1039 29.8414 90.8939 29.3247 91.0395 29.3247C91.2058 29.3247 91.9959 29.5934 92.7859 29.9241C93.8671 30.3788 94.3245 30.4821 94.6156 30.3374C95.0314 30.1101 96.6323 27.754 96.6323 27.3613C96.6323 27.2373 96.071 26.5553 95.3849 25.8526C94.6987 25.1705 94.1374 24.5092 94.1374 24.4058C94.1374 24.3025 94.3245 23.6825 94.5532 23.0211C94.7819 22.3598 94.969 21.6571 94.969 21.471C94.969 20.9337 95.3433 20.727 96.9442 20.3137C97.7551 20.107 98.5451 19.8176 98.7115 19.673C99.1065 19.3216 99.0857 16.4488 98.7115 15.9941C98.5659 15.8081 98.0669 15.6841 97.5887 15.6635C97.1313 15.6635 96.3621 15.5395 95.9254 15.4155C95.1769 15.1881 95.073 15.0434 94.4285 13.514C94.0334 12.6047 93.7216 11.7573 93.7216 11.6126C93.7216 11.468 94.2413 10.7446 94.8651 10.0006C95.4888 9.27719 96.0086 8.5745 96.0086 8.42982C96.0086 7.8098 94.0334 5.55703 93.4721 5.55703C93.2641 5.55703 92.5988 5.82571 91.9959 6.17706C91.3721 6.50774 90.686 6.79709 90.4365 6.79709C89.9999 6.79709 87.3386 5.12302 87.006 4.64766C86.9228 4.52366 86.9228 3.67629 86.9852 2.76692C87.1307 0.844833 87.1307 0.803498 85.3634 0.307477C83.8873 -0.105874 83.6793 -0.105874 83.2843 0.328145ZM83.2011 6.09439C87.9 7.29311 91.7256 11.468 92.5988 16.3042C93.5968 21.9877 89.8752 28.2087 84.3031 30.1514C82.5358 30.7714 80.5814 30.9781 78.2944 30.7714C76.5479 30.6268 76.0281 30.4821 74.4688 29.7381C72.3065 28.7047 70.165 26.6793 68.8551 24.4678C68.1274 23.2485 67.9195 23.0211 67.5037 23.0831C66.6928 23.2071 66.2146 23.8271 66.2354 24.6952C66.2562 25.3152 66.1107 25.6252 65.4661 26.3279C65.0295 26.8033 64.5097 27.444 64.3018 27.7333C63.9484 28.2913 63.9484 28.312 64.5097 29.18C65.279 30.3374 66.0899 31.1848 66.4433 31.1848C66.6097 31.1848 67.4205 30.8541 68.2522 30.4408L69.7492 29.6761L71.3293 30.7921L72.9302 31.9082V33.6029V35.2976L72.2649 35.587C70.664 36.269 70.3521 36.3517 69.1254 36.3517C67.2126 36.3517 65.5285 35.711 64.1771 34.4503C62.4306 32.8382 61.7029 31.2261 61.7029 28.9527C61.7029 26.2659 63.2623 23.8271 65.8612 22.4218C67.4621 21.5537 69.6868 21.4297 71.5164 22.1117C72.5976 22.5044 73.1174 22.8764 74.5312 24.3025C76.2361 26.0179 76.9638 26.3899 77.234 25.6872C77.5251 24.9225 75.7163 22.5871 73.9906 21.471C70.3937 19.1976 65.5909 19.6936 62.5762 22.6904C60.2475 25.0052 59.4367 28.7254 60.5386 31.9908C61.8692 35.8763 65.1543 37.9844 69.9571 38.0051C71.1422 38.0051 73.1797 37.3437 73.7619 36.765C74.1153 36.4137 74.1985 36.4137 75.2589 36.7237C76.1113 36.9717 76.2361 37.075 75.8618 37.137C75.5915 37.1784 74.9262 37.4884 74.3856 37.8191C70.4976 40.1958 65.3414 39.7618 62.0356 36.765C56.0269 31.2881 58.0229 21.8637 65.778 19.0736C68.2522 18.1642 71.5788 18.4536 73.9282 19.7556C76.0073 20.913 77.9825 23.0418 78.8142 25.0259C79.0845 25.6666 79.2508 25.8112 79.729 25.8112C80.7686 25.8112 80.9349 25.5632 80.5399 24.5918C80.3527 24.1165 80.2072 23.5998 80.2072 23.4551C80.2072 23.2898 80.6438 22.6491 81.1636 22.0291L82.0992 20.8717L81.2468 19.735C80.7894 19.0943 80.3112 18.5776 80.2072 18.5776C80.1032 18.5776 79.4379 18.8669 78.7518 19.2183L77.5251 19.8796L76.1529 18.9909C75.4044 18.4949 74.6975 17.9576 74.6143 17.7716C74.5104 17.5855 74.5104 16.8829 74.6143 16.2008C74.6975 15.5188 74.7391 14.9194 74.6767 14.8574C74.6143 14.8161 74.0738 14.6094 73.4916 14.4234C72.0362 13.9687 71.9738 13.5347 73.2421 12.584C76.5271 10.1246 77.5459 9.69054 79.9577 9.69054C82.7022 9.69054 84.511 10.4759 86.403 12.46C89.7088 15.9115 89.6672 20.8924 86.3198 24.3852C82.8893 27.94 77.6707 28.0433 73.949 24.6125C72.9094 23.6618 72.5768 23.4758 71.4956 23.2898C70.7887 23.1658 70.165 23.1038 70.1026 23.1865C69.8947 23.3931 70.9551 25.0465 71.9322 26.0592C73.8866 28.0433 75.9658 29.0147 79.0013 29.3661C81.5378 29.6554 83.0348 29.4281 85.1347 28.3947C87.3802 27.2786 89.0643 25.5632 90.0207 23.3311C90.9355 21.2024 91.3305 19.1769 91.1434 17.4409C90.3741 10.0419 83.2635 5.55703 76.0905 7.95447C73.8658 8.71917 71.3917 10.8273 70.2482 12.9767C69.5828 14.2581 68.9175 16.2628 69.1046 16.5315C69.167 16.6348 68.9591 16.8208 68.668 16.9242C68.2522 17.0895 67.9403 17.0482 67.3997 16.8002C67.0255 16.6142 66.7552 16.3868 66.8176 16.2628C66.88 16.1595 67.0463 16.1182 67.171 16.1595C67.3166 16.2008 67.5245 15.8081 67.67 15.1881C68.7096 11.0339 72.4936 7.25177 76.7766 6.07372C78.232 5.68104 81.6418 5.70171 83.2011 6.09439ZM62.8256 17.0482C63.0544 17.6269 62.9504 18.1642 62.5969 18.4536C62.389 18.6189 61.8069 19.0943 61.3287 19.487C60.8297 19.9003 60.2683 20.231 60.102 20.231C59.9357 20.231 59.2911 20.0037 58.6674 19.7143C58.0436 19.425 57.4407 19.1976 57.3367 19.1976C57.108 19.1976 55.6734 21.2437 55.6734 21.5744C55.6734 21.6777 56.1516 22.2564 56.7546 22.8558L57.8149 23.9305L57.3575 25.3565C56.8377 27.0306 56.5259 27.3613 55.2784 27.5473C53.7398 27.7747 53.5943 27.94 53.5943 29.304C53.5943 30.0274 53.6983 30.5854 53.8646 30.7094C53.9893 30.8334 54.6755 31.0195 55.3616 31.1641C56.0477 31.2881 56.713 31.5155 56.8377 31.6601C57.108 31.9495 57.9605 34.2023 57.9605 34.5949C57.9605 34.7603 57.5447 35.3183 57.0249 35.8763C56.5259 36.4137 56.0893 36.9717 56.0893 37.1164C56.0893 37.3851 57.6902 39.4518 57.9189 39.4518C58.0021 39.4518 58.5634 39.1625 59.1872 38.8318C59.8109 38.4804 60.4346 38.2118 60.601 38.2118C61.0376 38.2118 63.3246 39.9272 63.4494 40.3405C63.491 40.5679 63.4702 41.2499 63.3454 41.8906C63.2415 42.5313 63.2415 43.1306 63.3246 43.1926C63.5741 43.4407 65.9236 44.164 66.1523 44.0813C66.277 44.04 66.5681 43.5647 66.7968 43.048C67.4829 41.4772 67.7532 41.3119 69.4789 41.3119C71.163 41.3119 71.3085 41.3946 72.0986 42.924C72.6392 43.9573 72.7847 44.0813 73.2837 43.8127C73.4916 43.7093 74.1153 43.4613 74.6767 43.2753C75.6747 42.924 75.6747 42.9033 75.5499 42.1593C75.1341 39.6998 75.0302 40.0305 76.4855 38.8525C77.2132 38.2738 77.9617 37.7984 78.1281 37.7984C78.3152 37.7984 78.9597 38.0258 79.5419 38.3151C80.1448 38.6044 80.7062 38.8318 80.8309 38.8318C81.0596 38.8318 82.4942 36.7237 82.4942 36.393C82.4942 36.3103 81.9953 35.6903 81.3715 35.0496C80.0201 33.6236 79.4587 33.5202 78.4815 34.5536C78.1073 34.9256 77.6914 35.401 77.5459 35.6283C77.4004 35.8557 77.5251 35.5456 77.8162 34.9463C78.1073 34.3469 78.4607 33.8096 78.6063 33.7682C78.7518 33.7269 79.5835 33.6442 80.4775 33.5616C82.0992 33.4376 82.0992 33.4376 82.7229 34.0989L83.3259 34.7396V46.1894V57.6393H46.0055H8.68504V37.1784V16.7175H35.693C60.1228 16.7175 62.7009 16.7588 62.8256 17.0482ZM46.6084 60.5534C48.0638 61.2147 47.5648 63.6328 45.9847 63.6328C44.3837 63.6328 43.864 61.1321 45.3401 60.5327C45.9639 60.2847 46.0055 60.2847 46.6084 60.5534ZM77.7122 61.1734C77.7122 61.6694 77.234 61.6074 77.1301 61.0907C77.0885 60.8841 77.1925 60.7394 77.3796 60.7394C77.5875 60.7394 77.7122 60.9254 77.7122 61.1734ZM79.6666 60.9047C79.833 61.1734 79.4379 61.6281 79.1884 61.4834C78.8558 61.2767 78.8973 60.7394 79.2508 60.7394C79.4171 60.7394 79.6042 60.8221 79.6666 60.9047ZM81.4547 61.1734C81.4547 61.6694 80.9765 61.6074 80.8725 61.0907C80.8309 60.8841 80.9349 60.7394 81.122 60.7394C81.3299 60.7394 81.4547 60.9254 81.4547 61.1734Z" fill="url(#paint1_linear_202_2)"/>
<defs>
<linearGradient id="paint0_linear_202_2" x1="162.5" y1="22" x2="162.5" y2="33" gradientUnits="userSpaceOnUse">
<stop stop-color="#35C0E3"/>
<stop offset="1" stop-color="#3492D4"/>
</linearGradient>
<linearGradient id="paint1_linear_202_2" x1="49.5" y1="75" x2="49.5" y2="0" gradientUnits="userSpaceOnUse">
<stop stop-color="#35C0E3"/>
<stop offset="1" stop-color="#3492D4"/>
</linearGradient>
</defs>
</svg>
