<?xml version="1.0" standalone="no"?>
<!DOCTYPE svg PUBLIC "-//W3C//DTD SVG 20010904//EN"
 "http://www.w3.org/TR/2001/REC-SVG-20010904/DTD/svg10.dtd">
<svg version="1.0" xmlns="http://www.w3.org/2000/svg"
 width="1389.000000pt" height="636.000000pt" viewBox="0 0 1389.000000 636.000000"
 preserveAspectRatio="xMidYMid meet">

<g transform="translate(0.000000,636.000000) scale(0.100000,-0.100000)"
fill="#000000" stroke="none">
<path d="M4008 6323 c-9 -10 -28 -43 -43 -73 -15 -30 -33 -58 -39 -62 -6 -4
-50 -8 -98 -8 l-87 0 -48 73 c-55 83 -70 87 -158 46 l-50 -24 -5 -98 -5 -97
-50 -41 c-90 -75 -96 -76 -180 -35 -74 34 -74 35 -98 15 -29 -22 -87 -110 -87
-131 0 -8 24 -41 54 -74 55 -61 67 -94 52 -141 -5 -11 -18 -23 -29 -26 -12 -3
-46 -13 -75 -24 -49 -17 -53 -20 -48 -45 3 -15 2 -30 -3 -32 -16 -10 -20 48
-5 72 l14 22 -1278 0 c-928 0 -1288 -3 -1313 -11 -45 -16 -87 -55 -110 -104
-18 -38 -19 -89 -19 -1100 0 -1007 1 -1062 19 -1100 22 -50 69 -91 119 -105
24 -6 267 -10 675 -10 350 0 637 -3 637 -7 0 -5 -33 -71 -74 -148 l-74 -140
-768 -5 c-587 -4 -774 -8 -791 -17 -26 -16 -47 -75 -39 -109 4 -14 19 -37 33
-50 l26 -24 2149 0 2149 0 24 24 c43 43 45 99 6 147 l-19 24 -775 3 -775 2
-76 145 c-42 80 -76 147 -76 150 0 3 287 5 638 5 407 0 650 4 674 10 50 14 97
55 119 105 17 37 19 79 19 637 0 445 -3 597 -12 600 -6 2 16 14 49 26 84 31
87 36 78 136 l-7 84 70 56 c38 31 76 56 83 56 8 0 46 -13 84 -29 52 -22 74
-27 88 -20 20 11 97 125 97 144 0 6 -27 39 -60 73 -33 33 -60 65 -60 70 0 5 9
35 20 67 11 32 20 66 20 75 0 26 18 36 95 56 39 10 77 24 85 31 19 17 18 156
0 178 -7 9 -31 15 -54 16 -22 0 -59 6 -80 12 -36 11 -41 18 -72 92 -19 44 -34
85 -34 92 0 7 25 42 55 78 30 35 55 69 55 76 0 30 -95 139 -122 139 -10 0 -42
-13 -71 -30 -30 -16 -63 -30 -75 -30 -21 0 -149 81 -165 104 -4 6 -4 47 -1 91
7 93 7 95 -78 119 -71 20 -81 20 -100 -1z m-4 -279 c226 -58 410 -260 452
-494 48 -275 -131 -576 -399 -670 -85 -30 -179 -40 -289 -30 -84 7 -109 14
-184 50 -104 50 -207 148 -270 255 -35 59 -45 70 -65 67 -39 -6 -62 -36 -61
-78 1 -30 -6 -45 -37 -79 -21 -23 -46 -54 -56 -68 -17 -27 -17 -28 10 -70 37
-56 76 -97 93 -97 8 0 47 16 87 36 l72 37 76 -54 77 -54 0 -82 0 -82 -32 -14
c-77 -33 -92 -37 -151 -37 -92 0 -173 31 -238 92 -84 78 -119 156 -119 266 0
130 75 248 200 316 77 42 184 48 272 15 52 -19 77 -37 145 -106 82 -83 117
-101 130 -67 14 37 -73 150 -156 204 -173 110 -404 86 -549 -59 -112 -112
-151 -292 -98 -450 64 -188 222 -290 453 -291 57 0 155 32 183 60 17 17 21 17
72 2 41 -12 47 -17 29 -20 -13 -2 -45 -17 -71 -33 -187 -115 -435 -94 -594 51
-289 265 -193 721 180 856 119 44 279 30 392 -33 100 -56 195 -159 235 -255
13 -31 21 -38 44 -38 50 0 58 12 39 59 -9 23 -16 48 -16 55 0 8 21 39 46 69
l45 56 -41 55 c-22 31 -45 56 -50 56 -5 0 -37 -14 -70 -31 l-59 -32 -66 43
c-36 24 -70 50 -74 59 -5 9 -5 43 0 76 4 33 6 62 3 65 -3 2 -29 12 -57 21 -70
22 -73 43 -12 89 158 119 207 140 323 140 132 0 219 -38 310 -134 159 -167
157 -408 -4 -577 -165 -172 -416 -177 -595 -11 -50 46 -66 55 -118 64 -34 6
-64 9 -67 5 -10 -10 41 -90 88 -139 94 -96 194 -143 340 -160 122 -14 194 -3
295 47 108 54 189 137 235 245 44 103 63 201 54 285 -37 358 -379 575 -724
459 -107 -37 -226 -139 -281 -243 -32 -62 -64 -159 -55 -172 3 -5 -7 -14 -21
-19 -20 -8 -35 -6 -61 6 -18 9 -31 20 -28 26 3 5 11 7 17 5 7 -2 17 17 24 47
50 201 232 384 438 441 70 19 234 18 309 -1z m-980 -530 c11 -28 6 -54 -11
-68 -10 -8 -38 -31 -61 -50 -24 -20 -51 -36 -59 -36 -8 0 -39 11 -69 25 -30
14 -59 25 -64 25 -11 0 -80 -99 -80 -115 0 -5 23 -33 52 -62 l51 -52 -22 -69
c-25 -81 -40 -97 -100 -106 -74 -11 -81 -19 -81 -85 0 -35 5 -62 13 -68 6 -6
39 -15 72 -22 33 -6 65 -17 71 -24 13 -14 54 -123 54 -142 0 -8 -20 -35 -45
-62 -24 -26 -45 -53 -45 -60 0 -13 77 -113 88 -113 4 0 31 14 61 30 30 17 60
30 68 30 21 0 131 -83 137 -103 2 -11 1 -44 -5 -75 -5 -31 -5 -60 -1 -63 12
-12 125 -47 136 -43 6 2 20 25 31 50 33 76 46 84 129 84 81 0 88 -4 126 -78
26 -50 33 -56 57 -43 10 5 40 17 67 26 48 17 48 18 42 54 -20 119 -25 103 45
160 35 28 71 51 79 51 9 0 40 -11 68 -25 29 -14 56 -25 62 -25 11 0 80 102 80
118 0 4 -24 34 -54 65 -65 69 -92 74 -139 24 -18 -18 -38 -41 -45 -52 -7 -11
-1 4 13 33 14 29 31 55 38 57 7 2 47 6 90 10 78 6 78 6 108 -26 l29 -31 0
-554 0 -554 -1795 0 -1795 0 0 990 0 990 1299 0 c1175 0 1299 -2 1305 -16z
m-780 -2105 c70 -32 46 -149 -30 -149 -77 0 -102 121 -31 150 30 12 32 12 61
-1z m1496 -30 c0 -24 -23 -21 -28 4 -2 10 3 17 12 17 10 0 16 -9 16 -21z m94
13 c8 -13 -11 -35 -23 -28 -16 10 -14 36 3 36 8 0 17 -4 20 -8z m86 -13 c0
-24 -23 -21 -28 4 -2 10 3 17 12 17 10 0 16 -9 16 -21z"/>
<path d="M10130 4609 c-67 -13 -164 -64 -201 -106 -80 -92 -119 -230 -119
-431 0 -219 37 -346 126 -434 104 -103 275 -142 455 -104 164 35 262 135 306
312 23 95 23 352 0 447 -55 224 -197 329 -440 326 -45 -1 -102 -5 -127 -10z
m240 -217 c69 -34 100 -137 100 -327 0 -115 -20 -221 -50 -270 -29 -47 -89
-68 -179 -63 -84 4 -116 24 -148 89 -44 87 -53 328 -17 458 20 69 37 95 77
115 45 22 171 21 217 -2z"/>
<path d="M4810 4238 c0 -393 6 -452 54 -545 61 -122 207 -184 396 -170 214 17
314 111 350 329 5 35 10 217 10 406 l0 342 -119 0 -120 0 -3 -377 c-3 -360 -4
-380 -24 -424 -28 -59 -59 -72 -159 -67 -139 7 -145 25 -152 511 l-6 357 -113
0 -114 0 0 -362z"/>
<path d="M5870 4070 l0 -530 111 0 110 0 -5 68 c-9 116 -18 687 -11 680 4 -4
80 -173 169 -375 l162 -368 152 -3 152 -3 0 531 0 530 -111 0 -112 0 7 -375
c4 -206 6 -375 3 -375 -2 0 -78 169 -168 375 l-164 375 -147 0 -148 0 0 -530z"/>
<path d="M6960 4070 l0 -530 118 0 117 0 0 530 0 530 -117 0 -118 0 0 -530z"/>
<path d="M7460 4070 l0 -530 118 0 117 0 0 530 0 530 -117 0 -118 0 0 -530z"/>
<path d="M7950 4070 l0 -530 111 0 110 0 -5 68 c-9 116 -18 687 -11 680 4 -4
80 -173 169 -375 l162 -368 152 -3 152 -3 0 531 0 530 -111 0 -112 0 7 -375
c4 -206 6 -375 3 -375 -2 0 -78 169 -168 375 l-164 375 -147 0 -148 0 0 -530z"/>
<path d="M9040 4070 l0 -530 115 0 115 0 0 215 0 215 180 0 180 0 0 100 0 100
-180 0 -180 0 0 115 0 115 205 0 205 0 0 100 0 100 -320 0 -320 0 0 -530z"/>
<path d="M6688 3278 c-64 -20 -83 -38 -58 -53 6 -4 42 -1 81 6 53 9 69 16 64
26 -3 8 -5 21 -5 29 0 17 2 17 -82 -8z"/>
<path d="M12428 3277 c-52 -15 -68 -24 -68 -38 0 -22 11 -23 96 -7 58 10 64
14 58 32 -10 33 -15 34 -86 13z"/>
<path d="M9772 3278 c-27 -27 -5 -71 23 -48 11 10 26 10 59 1 25 -6 52 -11 60
-11 18 0 46 27 46 45 0 18 -30 28 -46 15 -9 -8 -24 -8 -51 -1 -50 14 -76 14
-91 -1z"/>
<path d="M5443 3265 c-24 -10 -35 -24 -44 -55 -7 -23 -19 -44 -26 -47 -18 -7
-17 -53 2 -53 12 0 15 -19 15 -110 l0 -110 40 0 40 0 0 110 0 110 30 0 c27 0
30 3 30 30 0 27 -3 30 -31 30 -26 0 -30 3 -27 23 2 17 11 23 36 25 28 3 32 7
32 33 0 26 -3 29 -32 29 -18 -1 -47 -7 -65 -15z"/>
<path d="M7100 3245 c0 -23 4 -25 45 -25 41 0 45 2 45 25 0 23 -4 25 -45 25
-41 0 -45 -2 -45 -25z"/>
<path d="M8990 3080 l0 -190 35 0 35 0 0 190 0 190 -35 0 -35 0 0 -190z"/>
<path d="M12160 3080 l0 -190 35 0 35 0 0 190 0 190 -35 0 -35 0 0 -190z"/>
<path d="M12920 3245 c0 -23 4 -25 45 -25 41 0 45 2 45 25 0 23 -4 25 -45 25
-41 0 -45 -2 -45 -25z"/>
<path d="M4892 3065 l0 -175 39 0 39 0 0 175 0 175 -39 0 -39 0 0 -175z"/>
<path d="M6920 3219 c0 -29 -18 -59 -35 -59 -23 0 -18 -41 5 -47 18 -5 20 -14
20 -92 0 -97 12 -125 58 -134 48 -10 72 1 72 34 0 24 -4 29 -24 29 -30 0 -36
16 -36 96 l0 64 35 0 c32 0 35 2 35 30 0 28 -3 30 -35 30 -33 0 -35 2 -35 35
0 32 -2 35 -30 35 -24 0 -30 -4 -30 -21z"/>
<path d="M10770 3219 c0 -29 -18 -59 -35 -59 -23 0 -18 -41 5 -47 18 -5 20
-14 20 -92 0 -97 12 -125 58 -134 48 -10 72 1 72 34 0 24 -4 29 -24 29 -30 0
-36 16 -36 96 l0 64 35 0 c32 0 35 2 35 30 0 28 -3 30 -35 30 -33 0 -35 2 -35
35 0 32 -2 35 -30 35 -24 0 -30 -4 -30 -21z"/>
<path d="M5161 3174 c-24 -10 -38 -11 -45 -4 -5 5 -20 10 -33 10 -23 0 -23 0
-23 -145 l0 -145 40 0 40 0 0 109 0 109 31 11 c52 18 59 4 59 -120 l0 -109 41
0 41 0 -3 123 c-5 149 -17 177 -77 177 -20 -1 -52 -7 -71 -16z"/>
<path d="M5625 3181 c-44 -18 -60 -49 -63 -127 -7 -122 26 -167 123 -167 99 0
129 41 123 165 -3 75 -5 81 -36 109 -26 24 -41 29 -80 28 -26 0 -56 -4 -67 -8z
m100 -62 c14 -22 16 -124 3 -149 -15 -28 -52 -38 -73 -20 -21 17 -29 96 -16
141 11 35 15 39 46 39 19 0 37 -5 40 -11z"/>
<path d="M5971 3173 c-26 -13 -36 -14 -39 -5 -2 7 -15 12 -28 12 l-24 0 0
-145 0 -145 40 0 40 0 0 109 c0 119 1 121 61 121 27 0 29 3 29 35 0 30 -3 35
-22 35 -13 0 -38 -8 -57 -17z"/>
<path d="M6196 3174 c-20 -11 -31 -13 -39 -5 -6 6 -21 11 -34 11 -23 0 -23 0
-23 -145 l0 -145 40 0 40 0 0 109 0 109 32 11 c49 17 58 -2 58 -126 l0 -103
35 0 34 0 3 107 c3 106 4 108 30 120 51 25 58 13 58 -113 l0 -114 41 0 41 0
-4 129 c-3 110 -6 132 -22 150 -23 26 -72 28 -120 5 -32 -16 -36 -16 -51 0
-21 20 -81 20 -119 0z"/>
<path d="M6613 3179 c-33 -10 -42 -30 -25 -56 6 -9 17 -10 45 -2 58 16 101 8
105 -18 3 -20 -2 -23 -59 -29 -81 -9 -109 -34 -109 -97 0 -80 70 -114 152 -73
29 15 34 15 44 1 6 -8 21 -15 33 -15 20 0 21 4 21 105 0 121 -15 170 -55 185
-32 12 -108 12 -152 -1z m127 -188 c0 -31 -14 -41 -60 -41 -19 0 -29 6 -33 19
-8 33 11 51 53 51 37 0 40 -2 40 -29z"/>
<path d="M7322 3173 c-49 -24 -65 -62 -60 -149 3 -63 7 -78 29 -100 34 -34 88
-45 147 -31 47 12 60 29 43 56 -7 11 -17 12 -52 3 -56 -14 -84 2 -92 52 -7 46
2 103 19 117 7 6 37 9 68 7 53 -3 55 -2 58 24 3 17 -1 29 -10 33 -29 11 -118
4 -150 -12z"/>
<path d="M7573 3179 c-33 -10 -42 -30 -25 -56 6 -9 17 -10 45 -2 58 16 101 8
105 -18 3 -20 -2 -23 -59 -29 -81 -9 -109 -34 -109 -97 0 -80 70 -114 152 -73
29 15 34 15 44 1 6 -8 21 -15 33 -15 20 0 21 4 21 105 0 121 -15 170 -55 185
-32 12 -108 12 -152 -1z m127 -188 c0 -31 -14 -41 -60 -41 -19 0 -29 6 -33 19
-8 33 11 51 53 51 37 0 40 -2 40 -29z"/>
<path d="M8028 3174 c-40 -21 -58 -63 -58 -136 0 -71 13 -102 51 -131 31 -22
106 -26 162 -8 28 10 34 16 30 32 -8 28 -22 32 -77 19 -55 -12 -81 -2 -88 35
l-5 25 88 0 89 0 0 50 c0 61 -16 97 -51 116 -36 18 -106 17 -141 -2z m113 -76
c7 -28 7 -28 -42 -28 -41 0 -49 3 -49 18 0 27 22 43 54 40 23 -2 31 -9 37 -30z"/>
<path d="M8450 3184 c-36 -15 -50 -38 -50 -80 0 -50 24 -74 94 -94 44 -12 62
-32 50 -52 -7 -11 -85 -6 -115 6 -12 5 -19 -1 -27 -23 -12 -34 -8 -36 69 -51
89 -17 149 18 149 88 0 51 -15 69 -72 87 -60 20 -84 38 -73 55 6 9 25 11 66 6
57 -5 59 -5 65 20 4 14 4 28 1 31 -9 8 -139 14 -157 7z"/>
<path d="M8735 3181 c-44 -18 -60 -49 -63 -127 -7 -122 26 -167 123 -167 99 0
129 41 123 165 -3 75 -5 81 -36 109 -26 24 -41 29 -80 28 -26 0 -56 -4 -67 -8z
m100 -62 c14 -22 16 -124 3 -149 -15 -28 -52 -38 -73 -20 -21 17 -29 96 -16
141 11 35 15 39 46 39 19 0 37 -5 40 -11z"/>
<path d="M9512 3173 c-49 -24 -65 -62 -60 -149 3 -64 7 -78 29 -100 15 -14 42
-29 60 -33 25 -5 34 -12 34 -26 0 -16 -6 -19 -27 -17 -24 2 -28 -1 -28 -23 0
-22 4 -25 33 -25 45 0 70 21 70 57 0 24 6 32 29 41 29 11 35 26 19 51 -7 11
-17 12 -52 3 -56 -14 -84 2 -92 52 -7 46 2 103 19 117 7 6 37 9 68 7 53 -3 55
-2 58 24 3 17 -1 29 -10 33 -29 11 -118 4 -150 -12z"/>
<path d="M9795 3181 c-44 -18 -60 -49 -63 -127 -7 -122 26 -167 123 -167 99 0
129 41 123 165 -3 75 -5 81 -36 109 -26 24 -41 29 -80 28 -26 0 -56 -4 -67 -8z
m100 -62 c14 -22 16 -124 3 -149 -15 -28 -52 -38 -73 -20 -21 17 -29 96 -16
141 11 35 15 39 46 39 19 0 37 -5 40 -11z"/>
<path d="M10098 3174 c-40 -21 -58 -63 -58 -136 0 -71 13 -102 51 -131 31 -22
106 -26 162 -8 28 10 34 16 30 32 -8 28 -22 32 -77 19 -55 -12 -81 -2 -88 35
l-5 25 88 0 89 0 0 50 c0 61 -16 97 -51 116 -36 18 -106 17 -141 -2z m113 -76
c7 -28 7 -28 -42 -28 -41 0 -49 3 -49 18 0 27 22 43 54 40 23 -2 31 -9 37 -30z"/>
<path d="M10400 3184 c-36 -15 -50 -38 -50 -80 0 -50 24 -74 94 -94 44 -12 62
-32 50 -52 -7 -11 -85 -6 -115 6 -12 5 -19 -1 -27 -23 -12 -34 -8 -36 69 -51
89 -17 149 18 149 88 0 51 -15 69 -72 87 -60 20 -84 38 -73 55 6 9 25 11 66 6
57 -5 59 -5 65 20 4 14 4 28 1 31 -9 8 -139 14 -157 7z"/>
<path d="M10998 3174 c-40 -21 -58 -63 -58 -136 0 -71 13 -102 51 -131 31 -22
106 -26 162 -8 28 10 34 16 30 32 -8 28 -22 32 -77 19 -55 -12 -81 -2 -88 35
l-5 25 88 0 89 0 0 50 c0 61 -16 97 -51 116 -36 18 -106 17 -141 -2z m113 -76
c7 -28 7 -28 -42 -28 -41 0 -49 3 -49 18 0 27 22 43 54 40 23 -2 31 -9 37 -30z"/>
<path d="M11312 3173 c-49 -24 -65 -62 -60 -149 3 -63 7 -78 29 -100 34 -34
88 -45 147 -31 47 12 60 29 43 56 -7 11 -17 12 -52 3 -56 -14 -84 2 -92 52 -7
46 2 103 19 117 7 6 37 9 68 7 53 -3 55 -2 58 24 3 17 -1 29 -10 33 -29 11
-118 4 -150 -12z"/>
<path d="M11631 3174 c-24 -10 -38 -11 -45 -4 -5 5 -20 10 -33 10 -23 0 -23 0
-23 -145 l0 -145 40 0 40 0 0 109 0 109 31 11 c52 18 59 4 59 -120 l0 -109 41
0 41 0 -3 123 c-5 149 -17 177 -77 177 -20 -1 -52 -7 -71 -16z"/>
<path d="M11905 3181 c-44 -18 -60 -49 -63 -127 -7 -122 26 -167 123 -167 99
0 129 41 123 165 -3 75 -5 81 -36 109 -26 24 -41 29 -80 28 -26 0 -56 -4 -67
-8z m100 -62 c14 -22 16 -124 3 -149 -15 -28 -52 -38 -73 -20 -21 17 -29 96
-16 141 11 35 15 39 46 39 19 0 37 -5 40 -11z"/>
<path d="M12375 3181 c-44 -18 -60 -49 -63 -127 -7 -122 26 -167 123 -167 99
0 129 41 123 165 -3 75 -5 81 -36 109 -26 24 -41 29 -80 28 -26 0 -56 -4 -67
-8z m100 -62 c14 -22 16 -124 3 -149 -15 -28 -52 -38 -73 -20 -21 17 -29 96
-16 141 11 35 15 39 46 39 19 0 37 -5 40 -11z"/>
<path d="M12665 3176 c-44 -19 -58 -42 -58 -93 0 -40 4 -50 31 -73 27 -22 31
-31 26 -57 -6 -29 -4 -31 55 -53 85 -31 79 -44 -18 -36 -74 7 -80 6 -86 -13
-10 -32 0 -38 65 -46 75 -9 132 1 159 26 44 41 17 85 -68 116 -28 10 -51 21
-51 24 0 4 17 9 39 13 22 3 49 17 66 33 24 24 27 34 23 75 -4 36 -2 48 8 48 8
0 14 11 14 25 0 25 -1 25 -87 25 -50 -1 -101 -7 -118 -14z m113 -83 c3 -38 0
-44 -22 -55 -41 -18 -76 3 -76 45 0 43 17 59 60 55 33 -3 35 -5 38 -45z"/>
<path d="M13132 3173 c-49 -24 -65 -62 -60 -149 3 -63 7 -78 29 -100 34 -34
88 -45 147 -31 47 12 60 29 43 56 -7 11 -17 12 -52 3 -56 -14 -84 2 -92 52 -7
46 2 103 19 117 7 6 37 9 68 7 53 -3 55 -2 58 24 3 17 -1 29 -10 33 -29 11
-118 4 -150 -12z"/>
<path d="M13383 3179 c-33 -10 -42 -30 -25 -56 6 -9 17 -10 45 -2 58 16 101 8
105 -18 3 -20 -2 -23 -59 -29 -81 -9 -109 -34 -109 -97 0 -80 70 -114 152 -73
29 15 34 15 44 1 6 -8 21 -15 33 -15 20 0 21 4 21 105 0 121 -15 170 -55 185
-32 12 -108 12 -152 -1z m127 -188 c0 -31 -14 -41 -60 -41 -19 0 -29 6 -33 19
-8 33 11 51 53 51 37 0 40 -2 40 -29z"/>
<path d="M13710 3184 c-36 -15 -50 -38 -50 -80 0 -50 24 -74 94 -94 44 -12 62
-32 50 -52 -7 -11 -85 -6 -115 6 -12 5 -19 -1 -27 -23 -12 -34 -8 -36 69 -51
89 -17 149 18 149 88 0 51 -15 69 -72 87 -60 20 -84 38 -73 55 6 9 25 11 66 6
57 -5 59 -5 65 20 4 14 4 28 1 31 -9 8 -139 14 -157 7z"/>
<path d="M7100 3035 l0 -145 40 0 40 0 0 145 0 145 -40 0 -40 0 0 -145z"/>
<path d="M9130 3088 c1 -104 11 -163 33 -186 20 -20 85 -19 125 2 29 15 33 15
38 1 3 -8 17 -15 30 -15 l24 0 0 145 0 145 -40 0 -40 0 0 -105 c0 -95 -2 -105
-21 -115 -11 -6 -30 -10 -42 -8 -21 3 -22 8 -25 116 l-3 112 -39 0 -40 0 0
-92z"/>
<path d="M12920 3035 l0 -145 40 0 40 0 0 145 0 145 -40 0 -40 0 0 -145z"/>
<path d="M3527 2383 c-55 -17 -58 -39 -6 -36 60 5 81 13 77 30 -4 22 -15 23
-71 6z"/>
<path d="M11458 2383 c-28 -8 -48 -20 -48 -29 0 -8 4 -14 10 -14 15 0 110 21
110 25 0 11 -13 35 -19 34 -3 -1 -27 -8 -53 -16z"/>
<path d="M9386 2373 c-8 -19 14 -36 29 -23 6 5 29 4 54 -2 39 -10 46 -9 57 7
8 10 14 22 14 25 0 3 -33 7 -74 8 -60 1 -75 -2 -80 -15z"/>
<path d="M1960 2220 l0 -160 25 0 25 0 0 160 0 160 -25 0 -25 0 0 -160z"/>
<path d="M2556 2358 c-9 -12 -16 -30 -16 -40 0 -10 -7 -18 -15 -18 -8 0 -15
-9 -15 -20 0 -11 7 -20 15 -20 12 0 15 -16 15 -85 l0 -85 30 0 30 0 0 85 c0
84 0 85 25 85 18 0 25 5 25 20 0 15 -7 20 -25 20 -18 0 -25 5 -25 20 0 15 7
20 25 20 18 0 25 5 25 20 0 30 -73 29 -94 -2z"/>
<path d="M3850 2360 c0 -16 7 -20 30 -20 23 0 30 4 30 20 0 16 -7 20 -30 20
-23 0 -30 -4 -30 -20z"/>
<path d="M4510 2220 l0 -160 25 0 25 0 0 160 0 160 -25 0 -25 0 0 -160z"/>
<path d="M5340 2350 c0 -28 -3 -30 -34 -30 -22 0 -45 -9 -63 -24 -26 -22 -28
-30 -28 -94 0 -55 4 -74 19 -91 21 -23 65 -28 99 -10 16 9 22 9 25 0 2 -6 12
-11 23 -11 18 0 19 9 19 145 l0 145 -30 0 c-27 0 -30 -3 -30 -30z m0 -144 c0
-57 -2 -64 -22 -69 -34 -9 -48 10 -48 68 0 60 3 65 42 65 28 0 28 0 28 -64z"/>
<path d="M7690 2350 c0 -28 -3 -30 -34 -30 -22 0 -45 -9 -63 -24 -26 -22 -28
-30 -28 -94 0 -55 4 -74 19 -91 21 -23 65 -28 99 -10 16 9 22 9 25 0 2 -6 12
-11 23 -11 18 0 19 9 19 145 l0 145 -30 0 c-27 0 -30 -3 -30 -30z m0 -144 c0
-57 -2 -64 -22 -69 -34 -9 -48 10 -48 68 0 60 3 65 42 65 28 0 28 0 28 -64z"/>
<path d="M8150 2220 l0 -160 25 0 25 0 0 160 0 160 -25 0 -25 0 0 -160z"/>
<path d="M8800 2235 l0 -145 30 0 30 0 0 145 0 145 -30 0 -30 0 0 -145z"/>
<path d="M11270 2235 l0 -145 30 0 30 0 0 145 0 145 -30 0 -30 0 0 -145z"/>
<path d="M11840 2360 c0 -16 7 -20 30 -20 23 0 30 4 30 20 0 16 -7 20 -30 20
-23 0 -30 -4 -30 -20z"/>
<path d="M1027 2349 c-63 -37 -60 -215 4 -249 25 -14 124 -9 140 7 5 5 7 17 4
26 -5 12 -17 14 -60 10 -52 -5 -55 -5 -65 21 -13 34 -13 87 0 120 9 24 15 26
65 26 52 0 55 1 55 25 0 24 -2 25 -62 25 -35 0 -71 -5 -81 -11z"/>
<path d="M1230 2225 l0 -135 30 0 c30 0 30 1 30 55 l0 55 45 0 c41 0 45 2 45
25 0 23 -4 25 -45 25 -43 0 -45 1 -45 30 0 29 1 30 50 30 47 0 50 2 50 25 0
25 -1 25 -80 25 l-80 0 0 -135z"/>
<path d="M1410 2335 c0 -22 4 -25 35 -25 l35 0 0 -110 0 -110 30 0 30 0 0 110
0 110 34 0 c28 0 35 4 38 23 2 12 19 -36 39 -108 l35 -130 39 0 38 0 37 133
37 132 -34 0 c-22 0 -33 -5 -33 -14 0 -8 -10 -56 -21 -108 -24 -103 -25 -103
-55 35 l-19 87 -132 0 -133 0 0 -25z"/>
<path d="M2170 2225 l0 -135 30 0 30 0 0 135 0 135 -30 0 -30 0 0 -135z"/>
<path d="M4720 2225 l0 -135 30 0 c29 0 30 1 30 50 0 42 3 50 18 50 12 0 26
-17 42 -50 21 -45 27 -50 57 -50 18 0 33 3 33 6 0 3 -14 26 -31 50 l-31 45 26
20 c21 16 26 29 26 64 0 68 -24 85 -122 85 l-78 0 0 -135z m135 50 c0 -39 -1
-40 -35 -40 -31 0 -35 3 -38 28 -5 46 4 59 40 55 31 -3 33 -5 33 -43z"/>
<path d="M5780 2225 l0 -135 80 0 c79 0 80 0 80 25 0 23 -3 25 -50 25 -49 0
-50 1 -50 30 0 29 2 30 45 30 41 0 45 2 45 25 0 23 -4 25 -45 25 -43 0 -45 1
-45 30 0 29 1 30 50 30 47 0 50 2 50 25 0 25 -1 25 -80 25 l-80 0 0 -135z"/>
<path d="M8367 2340 c-51 -40 -33 -97 43 -135 36 -18 50 -31 50 -46 0 -19 -5
-21 -57 -17 -53 3 -58 1 -61 -18 -4 -25 19 -34 89 -34 54 0 89 29 89 76 0 40
-10 53 -66 83 -66 35 -65 55 4 59 48 3 53 5 50 25 -3 19 -10 22 -59 25 -44 2
-61 -1 -82 -18z"/>
<path d="M10110 2335 c0 -22 4 -25 35 -25 l35 0 0 -110 0 -110 30 0 30 0 0
110 0 110 35 0 c31 0 35 3 35 25 l0 25 -100 0 -100 0 0 -25z"/>
<path d="M3707 2343 c-4 -3 -7 -15 -7 -25 0 -10 -7 -18 -15 -18 -8 0 -15 -9
-15 -20 0 -11 7 -20 15 -20 12 0 15 -15 15 -73 0 -84 8 -97 62 -97 34 0 38 3
38 26 0 19 -4 25 -14 21 -24 -9 -37 19 -34 70 3 41 6 48 26 51 14 2 22 10 22
22 0 12 -8 20 -22 22 -15 2 -24 11 -26 26 -3 21 -30 30 -45 15z"/>
<path d="M6217 2343 c-4 -3 -7 -15 -7 -25 0 -10 -7 -18 -15 -18 -8 0 -15 -9
-15 -20 0 -11 7 -20 15 -20 12 0 15 -15 15 -73 0 -84 8 -97 62 -97 34 0 38 3
38 26 0 19 -4 25 -14 21 -24 -9 -37 19 -34 70 3 41 6 48 26 51 14 2 22 10 22
22 0 12 -8 20 -22 22 -15 2 -24 11 -26 26 -3 21 -30 30 -45 15z"/>
<path d="M6787 2343 c-4 -3 -7 -15 -7 -25 0 -10 -7 -18 -15 -18 -8 0 -15 -9
-15 -20 0 -11 7 -20 15 -20 12 0 15 -15 15 -73 0 -84 8 -97 62 -97 34 0 38 3
38 26 0 19 -4 25 -14 21 -24 -9 -37 19 -34 70 3 41 6 48 26 51 14 2 22 10 22
22 0 12 -8 20 -22 22 -15 2 -24 11 -26 26 -3 21 -30 30 -45 15z"/>
<path d="M2363 2305 c-18 -8 -33 -10 -33 -5 0 6 -9 10 -20 10 -19 0 -20 -7
-20 -110 l0 -110 30 0 30 0 0 85 c0 81 1 85 24 91 40 10 46 -2 46 -92 l0 -84
31 0 31 0 -4 101 c-2 86 -6 103 -22 115 -25 17 -52 17 -93 -1z"/>
<path d="M2705 2297 c-45 -38 -47 -145 -5 -187 29 -29 109 -28 137 3 27 28 37
101 20 147 -21 60 -102 80 -152 37z m84 -26 c18 -11 26 -93 12 -120 -13 -23
-40 -28 -59 -9 -20 20 -15 115 6 127 21 13 24 13 41 2z"/>
<path d="M2988 2304 c-16 -8 -28 -10 -28 -4 0 5 -9 10 -20 10 -19 0 -20 -7
-20 -110 l0 -110 30 0 30 0 0 85 0 84 35 7 c28 5 35 11 35 30 0 28 -21 31 -62
8z"/>
<path d="M3153 2305 c-18 -8 -33 -10 -33 -5 0 6 -9 10 -20 10 -19 0 -20 -7
-20 -110 l0 -110 30 0 30 0 0 85 c0 81 1 85 24 91 40 10 46 -2 46 -92 0 -83 0
-84 25 -84 25 0 25 1 25 80 0 70 2 81 21 90 40 22 49 7 49 -85 l0 -85 30 0 30
0 0 93 c0 68 -4 99 -16 115 -17 25 -56 28 -93 8 -21 -12 -27 -12 -39 0 -17 18
-48 17 -89 -1z"/>
<path d="M3480 2311 c-16 -4 -25 -14 -25 -26 0 -18 6 -20 58 -17 52 4 57 2 57
-17 0 -17 -6 -21 -36 -21 -36 0 -73 -15 -86 -34 -13 -19 -9 -60 8 -84 17 -25
70 -30 107 -11 16 9 22 9 25 0 2 -6 12 -11 23 -11 17 0 19 8 19 90 0 83 -2 93
-25 115 -25 26 -70 31 -125 16z m90 -145 c0 -17 -7 -26 -25 -30 -31 -8 -45 -1
-45 23 0 24 9 31 42 31 23 0 28 -4 28 -24z"/>
<path d="M4003 2301 c-36 -22 -50 -67 -40 -128 9 -53 42 -83 91 -83 67 0 88 9
80 34 -4 11 -7 22 -8 23 -1 1 -19 -3 -40 -9 -34 -11 -40 -10 -52 7 -14 19 -19
81 -8 109 4 12 20 16 56 16 46 0 49 2 46 23 -3 19 -10 22 -48 25 -31 2 -55 -4
-77 -17z"/>
<path d="M4210 2311 c-16 -4 -25 -14 -25 -26 0 -18 6 -20 58 -17 52 4 57 2 57
-17 0 -17 -6 -21 -36 -21 -36 0 -73 -15 -86 -34 -13 -19 -9 -60 8 -84 17 -25
70 -30 107 -11 16 9 22 9 25 0 2 -6 12 -11 23 -11 17 0 19 8 19 90 0 83 -2 93
-25 115 -25 26 -70 31 -125 16z m90 -145 c0 -17 -7 -26 -25 -30 -31 -8 -45 -1
-45 23 0 24 9 31 42 31 23 0 28 -4 28 -24z"/>
<path d="M5020 2307 c-32 -16 -50 -52 -50 -104 0 -87 35 -118 124 -111 64 5
67 7 60 34 -5 19 -9 20 -49 11 -47 -11 -75 0 -75 29 0 11 16 14 65 14 l65 0 0
45 c0 79 -67 119 -140 82z m84 -53 c9 -24 -2 -34 -40 -34 -34 0 -39 5 -28 34
8 21 60 21 68 0z"/>
<path d="M5500 2307 c-32 -16 -50 -52 -50 -104 0 -87 35 -118 124 -111 64 5
67 7 60 34 -5 19 -9 20 -49 11 -47 -11 -75 0 -75 29 0 11 16 14 65 14 l65 0 0
45 c0 79 -67 119 -140 82z m84 -53 c9 -24 -2 -34 -40 -34 -34 0 -39 5 -28 34
8 21 60 21 68 0z"/>
<path d="M6025 2308 c-27 -15 -35 -28 -35 -60 0 -30 25 -52 72 -63 34 -9 49
-26 38 -44 -6 -11 -17 -12 -51 -3 -33 8 -45 8 -51 -1 -21 -33 2 -47 77 -47 53
0 85 23 85 60 0 47 -9 58 -61 75 -66 22 -67 48 -1 44 41 -3 47 -1 50 17 2 15
-4 23 -20 28 -35 9 -81 7 -103 -6z"/>
<path d="M6428 2304 c-16 -8 -28 -10 -28 -4 0 5 -9 10 -20 10 -19 0 -20 -7
-20 -110 l0 -110 30 0 30 0 0 85 0 84 35 7 c28 5 35 11 35 30 0 28 -21 31 -62
8z"/>
<path d="M7238 2304 c-16 -8 -28 -10 -28 -4 0 5 -9 10 -20 10 -19 0 -20 -7
-20 -110 l0 -110 30 0 30 0 0 85 0 84 35 7 c28 5 35 11 35 30 0 28 -21 31 -62
8z"/>
<path d="M7360 2311 c-16 -4 -25 -14 -25 -26 0 -18 6 -20 58 -17 52 4 57 2 57
-17 0 -17 -6 -21 -36 -21 -36 0 -73 -15 -86 -34 -13 -19 -9 -60 8 -84 17 -25
70 -30 107 -11 16 9 22 9 25 0 2 -6 12 -11 23 -11 17 0 19 8 19 90 0 83 -2 93
-25 115 -25 26 -70 31 -125 16z m90 -145 c0 -17 -7 -26 -25 -30 -31 -8 -45 -1
-45 23 0 24 9 31 42 31 23 0 28 -4 28 -24z"/>
<path d="M7850 2311 c-16 -4 -25 -14 -25 -26 0 -18 6 -20 58 -17 52 4 57 2 57
-17 0 -17 -6 -21 -36 -21 -36 0 -73 -15 -86 -34 -13 -19 -9 -60 8 -84 17 -25
70 -30 107 -11 16 9 22 9 25 0 2 -6 12 -11 23 -11 17 0 19 8 19 90 0 83 -2 93
-25 115 -25 26 -70 31 -125 16z m90 -145 c0 -17 -7 -26 -25 -30 -31 -8 -45 -1
-45 23 0 24 9 31 42 31 23 0 28 -4 28 -24z"/>
<path d="M8595 2297 c-45 -38 -47 -145 -5 -187 29 -29 109 -28 137 3 27 28 37
101 20 147 -21 60 -102 80 -152 37z m84 -26 c18 -11 26 -93 12 -120 -13 -23
-40 -28 -59 -9 -20 20 -15 115 6 127 21 13 24 13 41 2z"/>
<path d="M9203 2301 c-73 -45 -46 -211 34 -211 14 0 23 -6 23 -15 0 -8 -9 -15
-20 -15 -13 0 -20 -7 -20 -20 0 -14 7 -20 23 -20 33 0 50 15 50 44 0 19 6 28
24 32 19 5 22 11 17 28 -4 11 -7 22 -8 23 -1 1 -19 -3 -40 -9 -34 -11 -40 -10
-52 7 -14 19 -19 81 -8 109 4 12 20 16 56 16 46 0 49 2 46 23 -3 19 -10 22
-48 25 -31 2 -55 -4 -77 -17z"/>
<path d="M9395 2297 c-45 -38 -47 -145 -5 -187 29 -29 109 -28 137 3 27 28 37
101 20 147 -21 60 -102 80 -152 37z m84 -26 c18 -11 26 -93 12 -120 -13 -23
-40 -28 -59 -9 -20 20 -15 115 6 127 21 13 24 13 41 2z"/>
<path d="M9650 2307 c-32 -16 -50 -52 -50 -104 0 -87 35 -118 124 -111 64 5
67 7 60 34 -5 19 -9 20 -49 11 -47 -11 -75 0 -75 29 0 11 16 14 65 14 l65 0 0
45 c0 79 -67 119 -140 82z m84 -53 c9 -24 -2 -34 -40 -34 -34 0 -39 5 -28 34
8 21 60 21 68 0z"/>
<path d="M9865 2308 c-27 -15 -35 -28 -35 -60 0 -30 25 -52 72 -63 34 -9 49
-26 38 -44 -6 -11 -17 -12 -51 -3 -33 8 -45 8 -51 -1 -21 -33 2 -47 77 -47 53
0 85 23 85 60 0 47 -9 58 -61 75 -66 22 -67 48 -1 44 41 -3 47 -1 50 17 2 15
-4 23 -20 28 -35 9 -81 7 -103 -6z"/>
<path d="M10380 2307 c-32 -16 -50 -52 -50 -104 0 -87 35 -118 124 -111 64 5
67 7 60 34 -5 19 -9 20 -49 11 -47 -11 -75 0 -75 29 0 11 16 14 65 14 l65 0 0
45 c0 79 -67 119 -140 82z m84 -53 c9 -24 -2 -34 -40 -34 -34 0 -39 5 -28 34
8 21 60 21 68 0z"/>
<path d="M10613 2301 c-36 -22 -50 -67 -40 -128 9 -53 42 -83 91 -83 67 0 88
9 80 34 -4 11 -7 22 -8 23 -1 1 -19 -3 -40 -9 -34 -11 -40 -10 -52 7 -14 19
-19 81 -8 109 4 12 20 16 56 16 46 0 49 2 46 23 -3 19 -10 22 -48 25 -31 2
-55 -4 -77 -17z"/>
<path d="M10863 2305 c-18 -8 -33 -10 -33 -5 0 6 -9 10 -20 10 -19 0 -20 -7
-20 -110 l0 -110 30 0 30 0 0 85 c0 81 1 85 24 91 40 10 46 -2 46 -92 l0 -84
31 0 31 0 -4 101 c-2 86 -6 103 -22 115 -25 17 -52 17 -93 -1z"/>
<path d="M11055 2297 c-45 -38 -47 -145 -5 -187 29 -29 109 -28 137 3 27 28
37 101 20 147 -21 60 -102 80 -152 37z m84 -26 c18 -11 26 -93 12 -120 -13
-23 -40 -28 -59 -9 -20 20 -15 115 6 127 21 13 24 13 41 2z"/>
<path d="M11405 2297 c-45 -38 -47 -145 -5 -187 29 -29 109 -28 137 3 27 28
37 101 20 147 -21 60 -102 80 -152 37z m84 -26 c18 -11 26 -93 12 -120 -13
-23 -40 -28 -59 -9 -20 20 -15 115 6 127 21 13 24 13 41 2z"/>
<path d="M11644 2306 c-51 -23 -60 -81 -18 -123 19 -19 24 -32 20 -49 -4 -16
-2 -24 6 -24 7 0 31 -9 53 -20 l40 -20 -67 4 c-65 4 -68 3 -68 -19 0 -19 7
-24 45 -30 49 -7 102 1 123 17 34 28 3 78 -60 93 -35 9 -36 25 -3 25 14 0 37
12 52 26 21 21 24 32 20 60 -3 19 -2 34 4 34 15 0 10 27 -7 34 -27 10 -108 6
-140 -8z m94 -54 c4 -30 -14 -52 -44 -52 -31 0 -49 32 -34 61 16 30 74 23 78
-9z"/>
<path d="M11993 2301 c-36 -22 -50 -67 -40 -128 9 -53 42 -83 91 -83 67 0 88
9 80 34 -4 11 -7 22 -8 23 -1 1 -19 -3 -40 -9 -34 -11 -40 -10 -52 7 -14 19
-19 81 -8 109 4 12 20 16 56 16 46 0 49 2 46 23 -3 19 -10 22 -48 25 -31 2
-55 -4 -77 -17z"/>
<path d="M12200 2311 c-16 -4 -25 -14 -25 -26 0 -18 6 -20 58 -17 52 4 57 2
57 -17 0 -17 -6 -21 -36 -21 -36 0 -73 -15 -86 -34 -13 -19 -9 -60 8 -84 17
-25 70 -30 107 -11 16 9 22 9 25 0 2 -6 12 -11 23 -11 17 0 19 8 19 90 0 83
-2 93 -25 115 -25 26 -70 31 -125 16z m90 -145 c0 -17 -7 -26 -25 -30 -31 -8
-45 -1 -45 23 0 24 9 31 42 31 23 0 28 -4 28 -24z"/>
<path d="M12435 2308 c-27 -15 -35 -28 -35 -60 0 -30 25 -52 72 -63 34 -9 49
-26 38 -44 -6 -11 -17 -12 -51 -3 -33 8 -45 8 -51 -1 -21 -33 2 -47 77 -47 53
0 85 23 85 60 0 47 -9 58 -61 75 -66 22 -67 48 -1 44 41 -3 47 -1 50 17 2 15
-4 23 -20 28 -35 9 -81 7 -103 -6z"/>
<path d="M3850 2200 l0 -110 30 0 30 0 0 110 0 110 -30 0 -30 0 0 -110z"/>
<path d="M6520 2219 c0 -50 5 -99 10 -110 12 -22 68 -26 103 -8 16 9 22 9 25
0 2 -6 12 -11 23 -11 18 0 19 8 19 110 l0 110 -30 0 -29 0 -3 -82 -3 -83 -30
0 -30 0 -3 83 c-3 80 -3 82 -27 82 -25 0 -25 -1 -25 -91z"/>
<path d="M6920 2219 c0 -50 5 -99 10 -110 12 -22 68 -26 103 -8 16 9 22 9 25
0 2 -6 12 -11 23 -11 18 0 19 8 19 110 l0 110 -30 0 -29 0 -3 -82 -3 -83 -30
0 -30 0 -3 83 c-3 80 -3 82 -27 82 -25 0 -25 -1 -25 -91z"/>
<path d="M8920 2219 c0 -50 5 -99 10 -110 12 -22 68 -26 103 -8 16 9 22 9 25
0 2 -6 12 -11 23 -11 18 0 19 8 19 110 l0 110 -30 0 -29 0 -3 -82 -3 -83 -30
0 -30 0 -3 83 c-3 80 -3 82 -27 82 -25 0 -25 -1 -25 -91z"/>
<path d="M11840 2200 l0 -110 30 0 30 0 0 110 0 110 -30 0 -30 0 0 -110z"/>
</g>
</svg>
