<svg width="142" height="38" viewBox="0 0 142 38" fill="none" xmlns="http://www.w3.org/2000/svg">
<path d="M5.0484 12.3636V28.0727C5.0484 29.7939 5.49314 31.1152 6.38262 32.0364C7.2721 32.9333 8.52218 33.3818 10.1329 33.3818C11.7676 33.3818 13.0297 32.9333 13.9192 32.0364C14.8086 31.1152 15.2534 29.7939 15.2534 28.0727V12.3636H20.3378V28.0364C20.3378 30.1939 19.8691 32.0242 18.9315 33.5273C18.018 35.0061 16.7799 36.1212 15.2173 36.8727C13.6788 37.6242 11.9599 38 10.0607 38C8.18562 38 6.47878 37.6242 4.94022 36.8727C3.4257 36.1212 2.2237 35.0061 1.33422 33.5273C0.44474 32.0242 0 30.1939 0 28.0364V12.3636H5.0484Z" fill="white"/>
<path d="M46.7433 37.7455H41.6949L30.2639 20.3273V37.7455H25.2155V12.3273H30.2639L41.6949 29.7818V12.3273H46.7433V37.7455Z" fill="white"/>
<path d="M61.7685 12.3636V16.0404H56.7807V37.7455H51.7323V12.3636H61.7685Z" fill="white"/>
<path d="M66.8169 12.3636V37.7455H61.7685V16.0404V12.3636H66.8169Z" fill="white"/>
<path d="M93.3325 37.7455H88.2841L76.8531 20.3273V37.7455H71.8047V12.3273H76.8531L88.2841 29.7818V12.3273H93.3325V37.7455Z" fill="white"/>
<path d="M113.863 12.3636V16.4727H103.37V22.9818H111.411V27.0182H103.37V37.7455H98.3215V12.3636H113.863Z" fill="white"/>
<path d="M129.127 38C126.771 38 124.607 37.4424 122.636 36.3273C120.665 35.2121 119.102 33.6727 117.948 31.7091C116.794 29.7212 116.217 27.4788 116.217 24.9818C116.217 22.5091 116.794 20.2909 117.948 18.3273C119.102 16.3394 120.665 14.7879 122.636 13.6727C124.607 12.5576 126.771 12 129.127 12C131.507 12 133.67 12.5576 135.617 13.6727C137.589 14.7879 139.139 16.3394 140.269 18.3273C141.423 20.2909 142 22.5091 142 24.9818C142 27.4788 141.423 29.7212 140.269 31.7091C139.139 33.6727 137.589 35.2121 135.617 36.3273C133.646 37.4424 131.483 38 129.127 38ZM129.127 33.4545C130.641 33.4545 131.975 33.1152 133.129 32.4364C134.283 31.7333 135.185 30.7394 135.834 29.4545C136.483 28.1697 136.807 26.6788 136.807 24.9818C136.807 23.2848 136.483 21.8061 135.834 20.5455C135.185 19.2606 134.283 18.2788 133.129 17.6C131.975 16.9212 130.641 16.5818 129.127 16.5818C127.612 16.5818 126.266 16.9212 125.088 17.6C123.934 18.2788 123.032 19.2606 122.383 20.5455C121.734 21.8061 121.41 23.2848 121.41 24.9818C121.41 26.6788 121.734 28.1697 122.383 29.4545C123.032 30.7394 123.934 31.7333 125.088 32.4364C126.266 33.1152 127.612 33.4545 129.127 33.4545Z" fill="white"/>
<circle cx="59.5" cy="5.5" r="5.5" fill="#35C0E3"/>
</svg>
