<svg width="197" height="51" viewBox="0 0 197 51" fill="none" xmlns="http://www.w3.org/2000/svg">
<path d="M75.4796 22.3077V35.6C75.4796 37.0564 75.8742 38.1744 76.6634 38.9538C77.4527 39.7128 78.5619 40.0923 79.9911 40.0923C81.4417 40.0923 82.5615 39.7128 83.3508 38.9538C84.1401 38.1744 84.5347 37.0564 84.5347 35.6V22.3077H89.0462V35.5692C89.0462 37.3949 88.6303 38.9436 87.7984 40.2154C86.9878 41.4667 85.8892 42.4103 84.5027 43.0462C83.1375 43.6821 81.6123 44 79.9271 44C78.2633 44 76.7488 43.6821 75.3836 43.0462C74.0397 42.4103 72.9731 41.4667 72.1839 40.2154C71.3946 38.9436 71 37.3949 71 35.5692V22.3077H75.4796Z" fill="white"/>
<path d="M112.476 43.7846H107.997L97.8539 29.0462V43.7846H93.3743V22.2769H97.8539L107.997 37.0462V22.2769H112.476V43.7846Z" fill="white"/>
<path d="M153.816 43.7846H149.337L139.194 29.0462V43.7846H134.714V22.2769H139.194L149.337 37.0462V22.2769H153.816V43.7846Z" fill="white"/>
<path d="M172.034 22.3077V25.7846H162.723V31.2923H169.858V34.7077H162.723V43.7846H158.243V22.3077H172.034Z" fill="white"/>
<path d="M185.577 44C183.487 44 181.567 43.5282 179.818 42.5846C178.069 41.641 176.682 40.3385 175.658 38.6769C174.634 36.9949 174.122 35.0974 174.122 32.9846C174.122 30.8923 174.634 29.0154 175.658 27.3538C176.682 25.6718 178.069 24.359 179.818 23.4154C181.567 22.4718 183.487 22 185.577 22C187.689 22 189.609 22.4718 191.337 23.4154C193.086 24.359 194.462 25.6718 195.464 27.3538C196.488 29.0154 197 30.8923 197 32.9846C197 35.0974 196.488 36.9949 195.464 38.6769C194.462 40.3385 193.086 41.641 191.337 42.5846C189.587 43.5282 187.668 44 185.577 44ZM185.577 40.1538C186.921 40.1538 188.105 39.8667 189.129 39.2923C190.153 38.6974 190.953 37.8564 191.529 36.7692C192.104 35.6821 192.392 34.4205 192.392 32.9846C192.392 31.5487 192.104 30.2974 191.529 29.2308C190.953 28.1436 190.153 27.3128 189.129 26.7385C188.105 26.1641 186.921 25.8769 185.577 25.8769C184.233 25.8769 183.039 26.1641 181.993 26.7385C180.97 27.3128 180.17 28.1436 179.594 29.2308C179.018 30.2974 178.73 31.5487 178.73 32.9846C178.73 34.4205 179.018 35.6821 179.594 36.7692C180.17 37.8564 180.97 38.6974 181.993 39.2923C183.039 39.8667 184.233 40.1538 185.577 40.1538Z" fill="white"/>
<path d="M121.383 25.4188V43.7846H116.903V22.3077H130.288V43.7846H125.809V25.4188H121.383Z" fill="white"/>
<circle cx="124" cy="13" r="5" fill="url(#paint0_linear_3_51)"/>
<path d="M56.3641 0.223136C56.2375 0.363675 55.9701 0.827455 55.7591 1.24907C55.548 1.67069 55.2947 2.0642 55.2103 2.12042C55.1259 2.17663 54.5068 2.23285 53.8314 2.23285H52.6072L51.9318 1.20691C51.1579 0.0404344 50.9468 -0.0157813 49.7086 0.56043L49.0051 0.897724L48.9347 2.27501L48.8643 3.63824L48.1608 4.21445C46.8944 5.2685 46.81 5.28255 45.628 4.70634C44.5868 4.22851 44.5868 4.21445 44.2491 4.49553C43.841 4.80472 43.0249 6.04146 43.0249 6.3366C43.0249 6.44903 43.3626 6.91281 43.7847 7.37659C44.5586 8.23388 44.7275 8.69766 44.5164 9.35819C44.4461 9.51279 44.2632 9.68143 44.1084 9.7236C43.9395 9.76576 43.4611 9.9063 43.0531 10.0609C42.3636 10.2998 42.3073 10.342 42.3777 10.6933C42.4199 10.9041 42.4058 11.1149 42.3354 11.143C42.1103 11.2836 42.054 10.4685 42.2651 10.1312L42.4621 9.82197H24.4795C11.4217 9.82197 6.35616 9.86413 6.00439 9.97657C5.3712 10.2014 4.78022 10.7495 4.45659 11.4382C4.20332 11.9722 4.18925 12.689 4.18925 26.8975C4.18925 41.0498 4.20332 41.8228 4.45659 42.3568C4.76615 43.0595 5.42749 43.6357 6.13103 43.8325C6.46873 43.9168 9.88796 43.973 15.6289 43.973C20.5537 43.973 24.592 44.0152 24.592 44.0714C24.592 44.1417 24.1277 45.0692 23.5508 46.1514L22.5096 48.1189L11.7031 48.1892C3.44349 48.2454 0.812232 48.3016 0.573027 48.4281C0.207183 48.653 -0.0883053 49.4822 0.0242618 49.96C0.0805454 50.1568 0.291609 50.48 0.488601 50.6627L0.854445 51H31.0928H61.3312L61.6689 50.6627C62.2739 50.0584 62.302 49.2714 61.7533 48.5968L61.4859 48.2595L50.581 48.2173L39.676 48.1892L38.6067 46.1514C38.0157 45.0271 37.5373 44.0855 37.5373 44.0433C37.5373 44.0011 41.5756 43.973 46.5145 43.973C52.2414 43.973 55.6606 43.9168 55.9983 43.8325C56.7018 43.6357 57.3632 43.0595 57.6727 42.3568C57.9119 41.8368 57.9401 41.2466 57.9401 33.4045C57.9401 27.1505 57.8979 25.0143 57.7712 24.9721C57.6868 24.944 57.9963 24.7754 58.4607 24.6067C59.6426 24.171 59.6849 24.1008 59.5582 22.6954L59.4597 21.5148L60.4447 20.7278C60.9794 20.2922 61.5141 19.9408 61.6126 19.9408C61.7251 19.9408 62.2598 20.1235 62.7945 20.3484C63.5262 20.6576 63.8358 20.7278 64.0328 20.6294C64.3142 20.4749 65.3976 18.8727 65.3976 18.6057C65.3976 18.5214 65.0177 18.0576 64.5534 17.5797C64.089 17.116 63.7091 16.6662 63.7091 16.596C63.7091 16.5257 63.8358 16.1041 63.9906 15.6544C64.1453 15.2046 64.272 14.7268 64.272 14.6003C64.272 14.2349 64.5252 14.0944 65.6087 13.8133C66.1575 13.6728 66.6922 13.476 66.8047 13.3776C67.0721 13.1387 67.058 11.1852 66.8047 10.876C66.7062 10.7495 66.3685 10.6652 66.0449 10.6512C65.7353 10.6512 65.2147 10.5668 64.9192 10.4825C64.4127 10.3279 64.3423 10.2295 63.9061 9.18955C63.6388 8.57117 63.4277 7.99496 63.4277 7.89658C63.4277 7.79821 63.7795 7.30632 64.2016 6.80038C64.6237 6.30849 64.9755 5.83066 64.9755 5.73228C64.9755 5.31066 63.6388 3.77878 63.2589 3.77878C63.1182 3.77878 62.6679 3.96148 62.2598 4.2004C61.8377 4.42526 61.3734 4.62202 61.2045 4.62202C60.909 4.62202 59.108 3.48365 58.8828 3.16041C58.8265 3.07608 58.8265 2.49987 58.8687 1.8815C58.9672 0.574484 58.9672 0.546376 57.7712 0.209082C56.7722 -0.0719971 56.6315 -0.0719971 56.3641 0.223136ZM56.3078 4.14418C59.4879 4.95931 62.0769 7.79821 62.6679 11.0868C63.3433 14.9517 60.8246 19.1819 57.0536 20.503C55.8576 20.9246 54.5349 21.0651 52.9871 20.9246C51.8052 20.8262 51.4534 20.7278 50.3981 20.2219C48.9347 19.5192 47.4854 18.1419 46.5989 16.6381C46.1064 15.8089 45.9657 15.6544 45.6843 15.6965C45.1356 15.7808 44.8119 16.2025 44.826 16.7927C44.8401 17.2143 44.7416 17.4252 44.3054 17.903C44.0099 18.2262 43.6581 18.6619 43.5174 18.8587C43.2782 19.2381 43.2782 19.2522 43.6581 19.8424C44.1787 20.6294 44.7275 21.2057 44.9667 21.2057C45.0793 21.2057 45.628 20.9808 46.1909 20.6997L47.204 20.1797L48.2734 20.9386L49.3568 21.6975V22.85V24.0024L48.9066 24.1991C47.8231 24.6629 47.612 24.7191 46.7818 24.7191C45.4873 24.7191 44.3476 24.2835 43.433 23.4262C42.251 22.33 41.7585 21.2338 41.7585 19.6878C41.7585 17.8608 42.8139 16.2025 44.5727 15.2468C45.6562 14.6565 47.1618 14.5722 48.4 15.036C49.1317 15.303 49.4835 15.556 50.4403 16.5257C51.5941 17.6922 52.0866 17.9451 52.2695 17.4673C52.4665 16.9473 51.2423 15.3592 50.0744 14.6003C47.6402 13.0544 44.3898 13.3917 42.3495 15.4295C40.7736 17.0035 40.2248 19.5332 40.9706 21.7538C41.8711 24.3959 44.0943 25.8294 47.3447 25.8435C48.1467 25.8435 49.5257 25.3937 49.9197 25.0002C50.1589 24.7613 50.2151 24.7613 50.9328 24.9721C51.5097 25.1408 51.5941 25.211 51.3408 25.2532C51.1579 25.2813 50.7076 25.4921 50.3418 25.717C47.7105 27.3332 44.2209 27.038 41.9837 25.0002C37.9172 21.2759 39.268 14.8673 44.5164 12.9701C46.1909 12.3517 48.4422 12.5484 50.0322 13.4338C51.4393 14.2209 52.7761 15.6684 53.3389 17.0176C53.5218 17.4533 53.6344 17.5516 53.958 17.5516C54.6616 17.5516 54.7741 17.383 54.5068 16.7225C54.3801 16.3992 54.2816 16.0479 54.2816 15.9495C54.2816 15.8371 54.5771 15.4014 54.9289 14.9798L55.5621 14.1927L54.9852 13.4198C54.6756 12.9841 54.352 12.6328 54.2816 12.6328C54.2113 12.6328 53.761 12.8295 53.2967 13.0684L52.4665 13.5182L51.5378 12.9138C51.0313 12.5765 50.5528 12.2111 50.4966 12.0847C50.4262 11.9582 50.4262 11.4803 50.4966 11.0166C50.5528 10.5528 50.581 10.1452 50.5388 10.1031C50.4966 10.0749 50.1307 9.9344 49.7367 9.80792C48.7518 9.49873 48.7096 9.2036 49.5679 8.55712C51.7911 6.8847 52.4806 6.58957 54.1128 6.58957C55.9701 6.58957 57.1943 7.12362 58.4748 8.47279C60.712 10.8198 60.6839 14.2068 58.4185 16.5819C56.0968 18.9992 52.565 19.0695 50.0463 16.7365C49.3428 16.09 49.1176 15.9635 48.3859 15.8371C47.9075 15.7527 47.4854 15.7106 47.4432 15.7668C47.3025 15.9073 48.0201 17.0316 48.6814 17.7203C50.0041 19.0695 51.4112 19.73 53.4655 19.9689C55.1822 20.1657 56.1953 20.0111 57.6164 19.3084C59.1361 18.5495 60.2758 17.383 60.9231 15.8652C61.5422 14.4176 61.8096 13.0403 61.6829 11.8598C61.1623 6.82848 56.3501 3.77878 51.4956 5.40904C49.99 5.92903 48.3156 7.36253 47.5417 8.82414C47.0914 9.69549 46.6411 11.0587 46.7678 11.2414C46.81 11.3117 46.6693 11.4382 46.4723 11.5084C46.1909 11.6209 45.9798 11.5928 45.614 11.4241C45.3607 11.2976 45.1778 11.143 45.22 11.0587C45.2622 10.9884 45.3748 10.9603 45.4592 10.9884C45.5577 11.0166 45.6984 10.7495 45.7969 10.3279C46.5004 7.50307 49.0613 4.9312 51.9599 4.13013C52.9449 3.8631 55.2525 3.87716 56.3078 4.14418ZM42.5184 11.5928C42.6731 11.9863 42.6028 12.3517 42.3636 12.5484C42.2229 12.6609 41.8289 12.9841 41.5053 13.2511C41.1676 13.5322 40.7876 13.7571 40.6751 13.7571C40.5625 13.7571 40.1263 13.6025 39.7042 13.4057C39.2821 13.209 38.874 13.0544 38.8037 13.0544C38.6489 13.0544 37.678 14.4457 37.678 14.6706C37.678 14.7408 38.0016 15.1344 38.4097 15.5419L39.1273 16.2727L38.8177 17.2424C38.4659 18.3808 38.2549 18.6057 37.4106 18.7322C36.3694 18.8868 36.2709 18.9992 36.2709 19.9268C36.2709 20.4186 36.3412 20.7981 36.4538 20.8824C36.5382 20.9667 37.0026 21.0932 37.4669 21.1916C37.9313 21.2759 38.3815 21.4305 38.4659 21.5289C38.6489 21.7257 39.2258 23.2575 39.2258 23.5246C39.2258 23.637 38.9444 24.0164 38.5926 24.3959C38.2549 24.7613 37.9594 25.1408 37.9594 25.2391C37.9594 25.4218 39.0429 26.8272 39.1976 26.8272C39.2539 26.8272 39.6338 26.6305 40.056 26.4056C40.4781 26.1667 40.9002 25.984 41.0128 25.984C41.3083 25.984 42.8561 27.1505 42.9405 27.4316C42.9686 27.5861 42.9546 28.0499 42.8701 28.4856C42.7998 28.9213 42.7998 29.3288 42.8561 29.371C43.0249 29.5396 44.6149 30.0315 44.7697 29.9753C44.8541 29.9472 45.0511 29.624 45.2059 29.2726C45.6702 28.2045 45.8532 28.0921 47.0211 28.0921C48.1608 28.0921 48.2593 28.1483 48.794 29.1883C49.1598 29.891 49.2583 29.9753 49.596 29.7926C49.7367 29.7223 50.1589 29.5537 50.5388 29.4272C51.2142 29.1883 51.2142 29.1742 51.1298 28.6683C50.8483 26.9959 50.778 27.2207 51.7629 26.4197C52.2554 26.0262 52.762 25.7029 52.8745 25.7029C53.0012 25.7029 53.4374 25.8575 53.8314 26.0543C54.2394 26.251 54.6193 26.4056 54.7038 26.4056C54.8585 26.4056 55.8294 24.9721 55.8294 24.7473C55.8294 24.691 55.4917 24.2694 55.0696 23.8337C54.155 22.864 53.7751 22.7938 53.1138 23.4965C52.8605 23.7494 52.5791 24.0727 52.4806 24.2273C52.3821 24.3818 52.4665 24.171 52.6635 23.7635C52.8605 23.3559 53.0997 22.9905 53.1982 22.9624C53.2967 22.9343 53.8595 22.8781 54.4646 22.8219C55.5621 22.7375 55.5621 22.7375 55.9842 23.1873L56.3923 23.6229V31.4088V39.1947H31.135H5.87775V25.2813V11.3679H24.1558C40.6891 11.3679 42.4339 11.396 42.5184 11.5928ZM31.5431 41.1763C32.528 41.626 32.1903 43.2703 31.1209 43.2703C30.0375 43.2703 29.6857 41.5698 30.6847 41.1622C31.1069 40.9936 31.135 40.9936 31.5431 41.1763ZM52.5931 41.5979C52.5931 41.9352 52.2695 41.8931 52.1991 41.5417C52.171 41.4012 52.2414 41.3028 52.368 41.3028C52.5087 41.3028 52.5931 41.4293 52.5931 41.5979ZM53.9158 41.4152C54.0284 41.5979 53.761 41.9071 53.5922 41.8087C53.367 41.6682 53.3952 41.3028 53.6344 41.3028C53.7469 41.3028 53.8736 41.359 53.9158 41.4152ZM55.1259 41.5979C55.1259 41.9352 54.8023 41.8931 54.7319 41.5417C54.7038 41.4012 54.7741 41.3028 54.9008 41.3028C55.0415 41.3028 55.1259 41.4293 55.1259 41.5979Z" fill="url(#paint1_linear_3_51)"/>
<defs>
<linearGradient id="paint0_linear_3_51" x1="124" y1="8" x2="124" y2="18" gradientUnits="userSpaceOnUse">
<stop stop-color="#3492D4"/>
<stop offset="1" stop-color="#35C0E3"/>
</linearGradient>
<linearGradient id="paint1_linear_3_51" x1="33.5" y1="51" x2="33.5" y2="0" gradientUnits="userSpaceOnUse">
<stop stop-color="#3492D4"/>
<stop offset="1" stop-color="#35C0E3"/>
</linearGradient>
</defs>
</svg>
