<svg width="150" height="150" viewBox="0 0 200 200" fill="none" xmlns="http://www.w3.org/2000/svg">
<g clip-path="url(#clip0_302_2)">
<path d="M100 12.5C100 9.18479 101.317 6.00537 103.661 3.66117C106.005 1.31696 109.185 0 112.5 0L187.5 0C190.815 0 193.995 1.31696 196.339 3.66117C198.683 6.00537 200 9.18479 200 12.5V187.5C200 190.815 198.683 193.995 196.339 196.339C193.995 198.683 190.815 200 187.5 200H112.5C109.185 200 106.005 198.683 103.661 196.339C101.317 193.995 100 190.815 100 187.5V12.5ZM112.5 181.25C112.5 182.908 113.158 184.497 114.331 185.669C115.503 186.842 117.092 187.5 118.75 187.5C120.408 187.5 121.997 186.842 123.169 185.669C124.342 184.497 125 182.908 125 181.25C125 179.592 124.342 178.003 123.169 176.831C121.997 175.658 120.408 175 118.75 175C117.092 175 115.503 175.658 114.331 176.831C113.158 178.003 112.5 179.592 112.5 181.25ZM137.5 181.25C137.5 182.908 138.158 184.497 139.331 185.669C140.503 186.842 142.092 187.5 143.75 187.5C145.408 187.5 146.997 186.842 148.169 185.669C149.342 184.497 150 182.908 150 181.25C150 179.592 149.342 178.003 148.169 176.831C146.997 175.658 145.408 175 143.75 175C142.092 175 140.503 175.658 139.331 176.831C138.158 178.003 137.5 179.592 137.5 181.25ZM118.75 12.5C117.092 12.5 115.503 13.1585 114.331 14.3306C113.158 15.5027 112.5 17.0924 112.5 18.75C112.5 20.4076 113.158 21.9973 114.331 23.1694C115.503 24.3415 117.092 25 118.75 25H181.25C182.908 25 184.497 24.3415 185.669 23.1694C186.842 21.9973 187.5 20.4076 187.5 18.75C187.5 17.0924 186.842 15.5027 185.669 14.3306C184.497 13.1585 182.908 12.5 181.25 12.5H118.75ZM112.5 43.75C112.5 45.4076 113.158 46.9973 114.331 48.1694C115.503 49.3415 117.092 50 118.75 50H181.25C182.908 50 184.497 49.3415 185.669 48.1694C186.842 46.9973 187.5 45.4076 187.5 43.75C187.5 42.0924 186.842 40.5027 185.669 39.3306C184.497 38.1585 182.908 37.5 181.25 37.5H118.75C117.092 37.5 115.503 38.1585 114.331 39.3306C113.158 40.5027 112.5 42.0924 112.5 43.75ZM18.75 25C13.7772 25 9.00805 26.9754 5.49175 30.4917C1.97544 34.0081 0 38.7772 0 43.75L0 131.25C0 136.223 1.97544 140.992 5.49175 144.508C9.00805 148.025 13.7772 150 18.75 150H75V175H68.75C67.0924 175 65.5027 175.658 64.3306 176.831C63.1585 178.003 62.5 179.592 62.5 181.25C62.5 182.908 63.1585 184.497 64.3306 185.669C65.5027 186.842 67.0924 187.5 68.75 187.5H87.5V137.5H18.75C17.0924 137.5 15.5027 136.842 14.3306 135.669C13.1585 134.497 12.5 132.908 12.5 131.25V43.75C12.5 42.0924 13.1585 40.5027 14.3306 39.3306C15.5027 38.1585 17.0924 37.5 18.75 37.5H87.5V25H18.75Z" fill="url(#paint0_linear_302_2)"/>
</g>
<defs>
<linearGradient id="paint0_linear_302_2" x1="100" y1="0" x2="100" y2="200" gradientUnits="userSpaceOnUse">
<stop stop-color="#35C0E3"/>
<stop offset="1" stop-color="#3492D4"/>
</linearGradient>
<clipPath id="clip0_302_2">
<rect width="200" height="200" fill="white"/>
</clipPath>
</defs>
</svg>
