<svg width="150" height="150" viewBox="0 0 200 200" fill="none" xmlns="http://www.w3.org/2000/svg">
<g clip-path="url(#clip0_302_4)">
<rect width="200" height="200" fill="url(#paint0_linear_302_4)"/>
<path d="M97.4 3.89999L78.2375 32.65C77.926 33.1205 77.7478 33.6666 77.7216 34.2303C77.6955 34.7939 77.8225 35.3542 78.0891 35.8515C78.3557 36.3488 78.752 36.7647 79.2359 37.0549C79.7198 37.3451 80.2732 37.499 80.8375 37.5H93.75V128.987C91.7601 127.494 89.599 126.243 87.3125 125.262L73.8625 119.5C70.4875 118.053 67.6116 115.647 65.5917 112.581C63.5718 109.514 62.4967 105.922 62.5 102.25V98.925C66.6701 97.4506 70.1847 94.5496 72.4227 90.7345C74.6607 86.9194 75.4779 82.436 74.73 78.0767C73.982 73.7173 71.7171 69.7627 68.3354 66.9118C64.9537 64.0609 60.6731 62.4973 56.25 62.4973C51.827 62.4973 47.5463 64.0609 44.1646 66.9118C40.783 69.7627 38.518 73.7173 37.77 78.0767C37.0221 82.436 37.8393 86.9194 40.0773 90.7345C42.3153 94.5496 45.8299 97.4506 50 98.925V102.25C49.9995 108.366 51.7935 114.347 55.1597 119.453C58.5259 124.559 63.3164 128.565 68.9375 130.975L82.3875 136.737C85.2705 137.974 87.7973 139.913 89.7366 142.379C91.6758 144.844 92.9655 147.757 93.4875 150.85C87.6213 152.435 82.5327 156.101 79.172 161.163C75.8113 166.226 74.4085 172.339 75.2255 178.36C76.0425 184.381 79.0235 189.899 83.6117 193.883C88.1999 197.867 94.0815 200.045 100.158 200.009C106.234 199.973 112.09 197.727 116.631 193.689C121.172 189.652 124.088 184.099 124.834 178.068C125.58 172.038 124.106 165.942 120.686 160.919C117.266 155.897 112.134 152.291 106.25 150.775V139.5C106.249 136.193 107.122 132.944 108.782 130.084C110.442 127.223 112.828 124.853 115.7 123.212L134.25 112.612C138.737 110.05 142.519 106.415 145.257 102.032C147.995 97.6496 149.603 92.6565 149.938 87.5H159.375C160.204 87.5 160.999 87.1708 161.585 86.5847C162.171 85.9987 162.5 85.2038 162.5 84.375V53.125C162.5 52.2962 162.171 51.5013 161.585 50.9153C160.999 50.3292 160.204 50 159.375 50H128.125C127.296 50 126.501 50.3292 125.915 50.9153C125.329 51.5013 125 52.2962 125 53.125V84.375C125 86.1 126.4 87.5 128.125 87.5H137.388C137.071 90.4482 136.059 93.2793 134.436 95.7608C132.813 98.2423 130.624 100.303 128.05 101.775L109.5 112.375C108.375 113.018 107.29 113.727 106.25 114.5V37.5H119.163C119.729 37.5005 120.285 37.3471 120.77 37.0562C121.256 36.7653 121.654 36.3479 121.921 35.8485C122.188 35.3492 122.314 34.7867 122.286 34.2211C122.258 33.6555 122.077 33.1082 121.763 32.6375L102.6 3.89999C102.315 3.472 101.928 3.12108 101.474 2.87837C101.021 2.63566 100.514 2.50867 100 2.50867C99.4856 2.50867 98.9791 2.63566 98.5256 2.87837C98.072 3.12108 97.6854 3.472 97.4 3.89999Z" fill="url(#paint1_linear_302_4)"/>
</g>
<defs>
<linearGradient id="paint0_linear_302_4" x1="100" y1="0" x2="100" y2="200" gradientUnits="userSpaceOnUse">
<stop stop-color="white"/>
<stop offset="1" stop-color="white" stop-opacity="0"/>
</linearGradient>
<linearGradient id="paint1_linear_302_4" x1="100" y1="2.50867" x2="100" y2="200.009" gradientUnits="userSpaceOnUse">
<stop stop-color="#35C0E3"/>
<stop offset="1" stop-color="#3492D4"/>
</linearGradient>
<clipPath id="clip0_302_4">
<rect width="200" height="200" fill="white"/>
</clipPath>
</defs>
</svg>
