<svg width="107" height="100" viewBox="0 0 107 100" fill="none" xmlns="http://www.w3.org/2000/svg">
<path d="M6.66667 13.3333C6.66667 9.79711 8.07142 6.40573 10.5719 3.90524C13.0724 1.40476 16.4638 0 20 0L93.3333 0C96.8696 0 100.261 1.40476 102.761 3.90524C105.262 6.40573 106.667 9.79711 106.667 13.3333V86.6667C106.667 90.2029 105.262 93.5943 102.761 96.0948C100.261 98.5952 96.8696 100 93.3333 100H20C16.4638 100 13.0724 98.5952 10.5719 96.0948C8.07142 93.5943 6.66667 90.2029 6.66667 86.6667V73.3333H3.33333C2.44928 73.3333 1.60143 72.9821 0.976311 72.357C0.35119 71.7319 0 70.8841 0 70V63.3333C0 62.4493 0.35119 61.6014 0.976311 60.9763C1.60143 60.3512 2.44928 60 3.33333 60H6.66667V53.3333H3.33333C2.44928 53.3333 1.60143 52.9821 0.976311 52.357C0.35119 51.7319 0 50.8841 0 50V43.3333C0 42.4493 0.35119 41.6014 0.976311 40.9763C1.60143 40.3512 2.44928 40 3.33333 40H6.66667V33.3333H3.33333C2.44928 33.3333 1.60143 32.9821 0.976311 32.357C0.35119 31.7319 0 30.8841 0 30V16.6667C0 15.7826 0.35119 14.9348 0.976311 14.3096C1.60143 13.6845 2.44928 13.3333 3.33333 13.3333H6.66667ZM80 16.6667C80 15.7826 79.6488 14.9348 79.0237 14.3096C78.3986 13.6845 77.5507 13.3333 76.6667 13.3333C75.7826 13.3333 74.9348 13.6845 74.3096 14.3096C73.6845 14.9348 73.3333 15.7826 73.3333 16.6667V63.3333C73.3333 64.2174 73.6845 65.0652 74.3096 65.6904C74.9348 66.3155 75.7826 66.6667 76.6667 66.6667C77.5507 66.6667 78.3986 66.3155 79.0237 65.6904C79.6488 65.0652 80 64.2174 80 63.3333V16.6667ZM93.3333 16.6667C93.3333 15.7826 92.9821 14.9348 92.357 14.3096C91.7319 13.6845 90.8841 13.3333 90 13.3333C89.1159 13.3333 88.2681 13.6845 87.643 14.3096C87.0179 14.9348 86.6667 15.7826 86.6667 16.6667V63.3333C86.6667 64.2174 87.0179 65.0652 87.643 65.6904C88.2681 66.3155 89.1159 66.6667 90 66.6667C90.8841 66.6667 91.7319 66.3155 92.357 65.6904C92.9821 65.0652 93.3333 64.2174 93.3333 63.3333V16.6667ZM23.3333 66.6667C22.4493 66.6667 21.6014 67.0179 20.9763 67.643C20.3512 68.2681 20 69.1159 20 70C20 70.8841 20.3512 71.7319 20.9763 72.357C21.6014 72.9821 22.4493 73.3333 23.3333 73.3333H63.3333C64.2174 73.3333 65.0652 72.9821 65.6904 72.357C66.3155 71.7319 66.6667 70.8841 66.6667 70C66.6667 69.1159 66.3155 68.2681 65.6904 67.643C65.0652 67.0179 64.2174 66.6667 63.3333 66.6667H23.3333ZM23.3333 80C22.4493 80 21.6014 80.3512 20.9763 80.9763C20.3512 81.6014 20 82.4493 20 83.3333C20 84.2174 20.3512 85.0652 20.9763 85.6904C21.6014 86.3155 22.4493 86.6667 23.3333 86.6667H63.3333C64.2174 86.6667 65.0652 86.3155 65.6904 85.6904C66.3155 85.0652 66.6667 84.2174 66.6667 83.3333C66.6667 82.4493 66.3155 81.6014 65.6904 80.9763C65.0652 80.3512 64.2174 80 63.3333 80H23.3333ZM26.6667 26.6667H23.3333C22.4493 26.6667 21.6014 27.0179 20.9763 27.643C20.3512 28.2681 20 29.1159 20 30C20 30.8841 20.3512 31.7319 20.9763 32.357C21.6014 32.9821 22.4493 33.3333 23.3333 33.3333H26.6667V40H23.3333C22.4493 40 21.6014 40.3512 20.9763 40.9763C20.3512 41.6014 20 42.4493 20 43.3333C20 44.2174 20.3512 45.0652 20.9763 45.6904C21.6014 46.3155 22.4493 46.6667 23.3333 46.6667H26.6667C26.6667 48.4348 27.369 50.1305 28.6193 51.3807C29.8695 52.631 31.5652 53.3333 33.3333 53.3333V56.6667C33.3333 57.5507 33.6845 58.3986 34.3096 59.0237C34.9348 59.6488 35.7826 60 36.6667 60C37.5507 60 38.3986 59.6488 39.0237 59.0237C39.6488 58.3986 40 57.5507 40 56.6667V53.3333H46.6667V56.6667C46.6667 57.5507 47.0179 58.3986 47.643 59.0237C48.2681 59.6488 49.1159 60 50 60C50.8841 60 51.7319 59.6488 52.357 59.0237C52.9821 58.3986 53.3333 57.5507 53.3333 56.6667V53.3333C55.1014 53.3333 56.7971 52.631 58.0474 51.3807C59.2976 50.1305 60 48.4348 60 46.6667H63.3333C64.2174 46.6667 65.0652 46.3155 65.6904 45.6904C66.3155 45.0652 66.6667 44.2174 66.6667 43.3333C66.6667 42.4493 66.3155 41.6014 65.6904 40.9763C65.0652 40.3512 64.2174 40 63.3333 40H60V33.3333H63.3333C64.2174 33.3333 65.0652 32.9821 65.6904 32.357C66.3155 31.7319 66.6667 30.8841 66.6667 30C66.6667 29.1159 66.3155 28.2681 65.6904 27.643C65.0652 27.0179 64.2174 26.6667 63.3333 26.6667H60C60 24.8986 59.2976 23.2029 58.0474 21.9526C56.7971 20.7024 55.1014 20 53.3333 20V16.6667C53.3333 15.7826 52.9821 14.9348 52.357 14.3096C51.7319 13.6845 50.8841 13.3333 50 13.3333C49.1159 13.3333 48.2681 13.6845 47.643 14.3096C47.0179 14.9348 46.6667 15.7826 46.6667 16.6667V20H40V16.6667C40 15.7826 39.6488 14.9348 39.0237 14.3096C38.3986 13.6845 37.5507 13.3333 36.6667 13.3333C35.7826 13.3333 34.9348 13.6845 34.3096 14.3096C33.6845 14.9348 33.3333 15.7826 33.3333 16.6667V20C31.5652 20 29.8695 20.7024 28.6193 21.9526C27.369 23.2029 26.6667 24.8986 26.6667 26.6667ZM73.3333 76.6667V83.3333C73.3333 84.2174 73.6845 85.0652 74.3096 85.6904C74.9348 86.3155 75.7826 86.6667 76.6667 86.6667H90C90.8841 86.6667 91.7319 86.3155 92.357 85.6904C92.9821 85.0652 93.3333 84.2174 93.3333 83.3333V76.6667C93.3333 75.7826 92.9821 74.9348 92.357 74.3096C91.7319 73.6845 90.8841 73.3333 90 73.3333H76.6667C75.7826 73.3333 74.9348 73.6845 74.3096 74.3096C73.6845 74.9348 73.3333 75.7826 73.3333 76.6667Z" fill="url(#paint0_linear_315_461)"/>
<defs>
<linearGradient id="paint0_linear_315_461" x1="53.3333" y1="0" x2="53.3333" y2="100" gradientUnits="userSpaceOnUse">
<stop stop-color="#35C0E3"/>
<stop offset="1" stop-color="#3492D4"/>
</linearGradient>
</defs>
</svg>
