<svg width="134" height="100" viewBox="0 0 134 100" fill="none" xmlns="http://www.w3.org/2000/svg">
<path d="M112.5 8.33333C113.605 8.33333 114.665 8.77232 115.446 9.55372C116.228 10.3351 116.667 11.3949 116.667 12.5V75H16.6667V12.5C16.6667 11.3949 17.1057 10.3351 17.8871 9.55372C18.6685 8.77232 19.7283 8.33333 20.8333 8.33333H112.5ZM20.8333 0C17.5181 0 14.3387 1.31696 11.9945 3.66117C9.65029 6.00537 8.33333 9.18479 8.33333 12.5V83.3333H125V12.5C125 9.18479 123.683 6.00537 121.339 3.66117C118.995 1.31696 115.815 0 112.5 0H20.8333ZM0 87.5H133.333C133.333 90.8152 132.016 93.9946 129.672 96.3388C127.328 98.683 124.149 100 120.833 100H12.5C9.18479 100 6.00537 98.683 3.66116 96.3388C1.31696 93.9946 0 90.8152 0 87.5Z" fill="url(#paint0_linear_315_458)"/>
<defs>
<linearGradient id="paint0_linear_315_458" x1="66.6667" y1="0" x2="66.6667" y2="100" gradientUnits="userSpaceOnUse">
<stop stop-color="#35C0E3"/>
<stop offset="1" stop-color="#3492D4"/>
</linearGradient>
</defs>
</svg>
