<svg width="150" height="141" viewBox="0 0 150 141" fill="none" xmlns="http://www.w3.org/2000/svg">
<path d="M9.375 18.75C9.375 13.7772 11.3504 9.00806 14.8667 5.49175C18.3831 1.97544 23.1522 0 28.125 0L131.25 0C136.223 0 140.992 1.97544 144.508 5.49175C148.025 9.00806 150 13.7772 150 18.75V121.875C150 126.848 148.025 131.617 144.508 135.133C140.992 138.65 136.223 140.625 131.25 140.625H28.125C23.1522 140.625 18.3831 138.65 14.8667 135.133C11.3504 131.617 9.375 126.848 9.375 121.875V103.125H4.6875C3.4443 103.125 2.25201 102.631 1.37294 101.752C0.49386 100.873 0 99.6807 0 98.4375V89.0625C0 87.8193 0.49386 86.627 1.37294 85.7479C2.25201 84.8689 3.4443 84.375 4.6875 84.375H9.375V75H4.6875C3.4443 75 2.25201 74.5061 1.37294 73.6271C0.49386 72.748 0 71.5557 0 70.3125V60.9375C0 59.6943 0.49386 58.502 1.37294 57.6229C2.25201 56.7439 3.4443 56.25 4.6875 56.25H9.375V46.875H4.6875C3.4443 46.875 2.25201 46.3811 1.37294 45.5021C0.49386 44.623 0 43.4307 0 42.1875V23.4375C0 22.1943 0.49386 21.002 1.37294 20.1229C2.25201 19.2439 3.4443 18.75 4.6875 18.75H9.375ZM112.5 23.4375C112.5 22.1943 112.006 21.002 111.127 20.1229C110.248 19.2439 109.056 18.75 107.812 18.75C106.569 18.75 105.377 19.2439 104.498 20.1229C103.619 21.002 103.125 22.1943 103.125 23.4375V89.0625C103.125 90.3057 103.619 91.498 104.498 92.3771C105.377 93.2561 106.569 93.75 107.812 93.75C109.056 93.75 110.248 93.2561 111.127 92.3771C112.006 91.498 112.5 90.3057 112.5 89.0625V23.4375ZM131.25 23.4375C131.25 22.1943 130.756 21.002 129.877 20.1229C128.998 19.2439 127.806 18.75 126.562 18.75C125.319 18.75 124.127 19.2439 123.248 20.1229C122.369 21.002 121.875 22.1943 121.875 23.4375V89.0625C121.875 90.3057 122.369 91.498 123.248 92.3771C124.127 93.2561 125.319 93.75 126.562 93.75C127.806 93.75 128.998 93.2561 129.877 92.3771C130.756 91.498 131.25 90.3057 131.25 89.0625V23.4375ZM32.8125 93.75C31.5693 93.75 30.377 94.2439 29.4979 95.1229C28.6189 96.002 28.125 97.1943 28.125 98.4375C28.125 99.6807 28.6189 100.873 29.4979 101.752C30.377 102.631 31.5693 103.125 32.8125 103.125H89.0625C90.3057 103.125 91.498 102.631 92.3771 101.752C93.2561 100.873 93.75 99.6807 93.75 98.4375C93.75 97.1943 93.2561 96.002 92.3771 95.1229C91.498 94.2439 90.3057 93.75 89.0625 93.75H32.8125ZM32.8125 112.5C31.5693 112.5 30.377 112.994 29.4979 113.873C28.6189 114.752 28.125 115.944 28.125 117.188C28.125 118.431 28.6189 119.623 29.4979 120.502C30.377 121.381 31.5693 121.875 32.8125 121.875H89.0625C90.3057 121.875 91.498 121.381 92.3771 120.502C93.2561 119.623 93.75 118.431 93.75 117.188C93.75 115.944 93.2561 114.752 92.3771 113.873C91.498 112.994 90.3057 112.5 89.0625 112.5H32.8125ZM37.5 37.5H32.8125C31.5693 37.5 30.377 37.9939 29.4979 38.8729C28.6189 39.752 28.125 40.9443 28.125 42.1875C28.125 43.4307 28.6189 44.623 29.4979 45.5021C30.377 46.3811 31.5693 46.875 32.8125 46.875H37.5V56.25H32.8125C31.5693 56.25 30.377 56.7439 29.4979 57.6229C28.6189 58.502 28.125 59.6943 28.125 60.9375C28.125 62.1807 28.6189 63.373 29.4979 64.2521C30.377 65.1311 31.5693 65.625 32.8125 65.625H37.5C37.5 68.1114 38.4877 70.496 40.2459 72.2541C42.004 74.0123 44.3886 75 46.875 75V79.6875C46.875 80.9307 47.3689 82.123 48.2479 83.0021C49.127 83.8811 50.3193 84.375 51.5625 84.375C52.8057 84.375 53.998 83.8811 54.8771 83.0021C55.7561 82.123 56.25 80.9307 56.25 79.6875V75H65.625V79.6875C65.625 80.9307 66.1189 82.123 66.9979 83.0021C67.877 83.8811 69.0693 84.375 70.3125 84.375C71.5557 84.375 72.748 83.8811 73.6271 83.0021C74.5061 82.123 75 80.9307 75 79.6875V75C77.4864 75 79.871 74.0123 81.6291 72.2541C83.3873 70.496 84.375 68.1114 84.375 65.625H89.0625C90.3057 65.625 91.498 65.1311 92.3771 64.2521C93.2561 63.373 93.75 62.1807 93.75 60.9375C93.75 59.6943 93.2561 58.502 92.3771 57.6229C91.498 56.7439 90.3057 56.25 89.0625 56.25H84.375V46.875H89.0625C90.3057 46.875 91.498 46.3811 92.3771 45.5021C93.2561 44.623 93.75 43.4307 93.75 42.1875C93.75 40.9443 93.2561 39.752 92.3771 38.8729C91.498 37.9939 90.3057 37.5 89.0625 37.5H84.375C84.375 35.0136 83.3873 32.629 81.6291 30.8709C79.871 29.1127 77.4864 28.125 75 28.125V23.4375C75 22.1943 74.5061 21.002 73.6271 20.1229C72.748 19.2439 71.5557 18.75 70.3125 18.75C69.0693 18.75 67.877 19.2439 66.9979 20.1229C66.1189 21.002 65.625 22.1943 65.625 23.4375V28.125H56.25V23.4375C56.25 22.1943 55.7561 21.002 54.8771 20.1229C53.998 19.2439 52.8057 18.75 51.5625 18.75C50.3193 18.75 49.127 19.2439 48.2479 20.1229C47.3689 21.002 46.875 22.1943 46.875 23.4375V28.125C44.3886 28.125 42.004 29.1127 40.2459 30.8709C38.4877 32.629 37.5 35.0136 37.5 37.5ZM103.125 107.812V117.188C103.125 118.431 103.619 119.623 104.498 120.502C105.377 121.381 106.569 121.875 107.812 121.875H126.562C127.806 121.875 128.998 121.381 129.877 120.502C130.756 119.623 131.25 118.431 131.25 117.188V107.812C131.25 106.569 130.756 105.377 129.877 104.498C128.998 103.619 127.806 103.125 126.562 103.125H107.812C106.569 103.125 105.377 103.619 104.498 104.498C103.619 105.377 103.125 106.569 103.125 107.812Z" fill="url(#paint0_linear_315_461)"/>
<defs>
<linearGradient id="paint0_linear_315_461" x1="75" y1="0" x2="75" y2="140.625" gradientUnits="userSpaceOnUse">
<stop stop-color="#35C0E3"/>
<stop offset="1" stop-color="#3492D4"/>
</linearGradient>
</defs>
</svg>
