<svg width="160" height="150" viewBox="0 0 160 150" fill="none" xmlns="http://www.w3.org/2000/svg">
<path d="M10 20C10 14.6957 12.1071 9.60859 15.8579 5.85786C19.6086 2.10714 24.6957 0 30 0L140 0C145.304 0 150.391 2.10714 154.142 5.85786C157.893 9.60859 160 14.6957 160 20V130C160 135.304 157.893 140.391 154.142 144.142C150.391 147.893 145.304 150 140 150H30C24.6957 150 19.6086 147.893 15.8579 144.142C12.1071 140.391 10 135.304 10 130V110H5C3.67392 110 2.40215 109.473 1.46447 108.536C0.526784 107.598 0 106.326 0 105V95C0 93.6739 0.526784 92.4021 1.46447 91.4645C2.40215 90.5268 3.67392 90 5 90H10V80H5C3.67392 80 2.40215 79.4732 1.46447 78.5355C0.526784 77.5979 0 76.3261 0 75V65C0 63.6739 0.526784 62.4021 1.46447 61.4645C2.40215 60.5268 3.67392 60 5 60H10V50H5C3.67392 50 2.40215 49.4732 1.46447 48.5355C0.526784 47.5979 0 46.3261 0 45V25C0 23.6739 0.526784 22.4021 1.46447 21.4645C2.40215 20.5268 3.67392 20 5 20H10ZM120 25C120 23.6739 119.473 22.4021 118.536 21.4645C117.598 20.5268 116.326 20 115 20C113.674 20 112.402 20.5268 111.464 21.4645C110.527 22.4021 110 23.6739 110 25V95C110 96.3261 110.527 97.5979 111.464 98.5355C112.402 99.4732 113.674 100 115 100C116.326 100 117.598 99.4732 118.536 98.5355C119.473 97.5979 120 96.3261 120 95V25ZM140 25C140 23.6739 139.473 22.4021 138.536 21.4645C137.598 20.5268 136.326 20 135 20C133.674 20 132.402 20.5268 131.464 21.4645C130.527 22.4021 130 23.6739 130 25V95C130 96.3261 130.527 97.5979 131.464 98.5355C132.402 99.4732 133.674 100 135 100C136.326 100 137.598 99.4732 138.536 98.5355C139.473 97.5979 140 96.3261 140 95V25ZM35 100C33.6739 100 32.4021 100.527 31.4645 101.464C30.5268 102.402 30 103.674 30 105C30 106.326 30.5268 107.598 31.4645 108.536C32.4021 109.473 33.6739 110 35 110H95C96.3261 110 97.5979 109.473 98.5355 108.536C99.4732 107.598 100 106.326 100 105C100 103.674 99.4732 102.402 98.5355 101.464C97.5979 100.527 96.3261 100 95 100H35ZM35 120C33.6739 120 32.4021 120.527 31.4645 121.464C30.5268 122.402 30 123.674 30 125C30 126.326 30.5268 127.598 31.4645 128.536C32.4021 129.473 33.6739 130 35 130H95C96.3261 130 97.5979 129.473 98.5355 128.536C99.4732 127.598 100 126.326 100 125C100 123.674 99.4732 122.402 98.5355 121.464C97.5979 120.527 96.3261 120 95 120H35ZM40 40H35C33.6739 40 32.4021 40.5268 31.4645 41.4645C30.5268 42.4021 30 43.6739 30 45C30 46.3261 30.5268 47.5979 31.4645 48.5355C32.4021 49.4732 33.6739 50 35 50H40V60H35C33.6739 60 32.4021 60.5268 31.4645 61.4645C30.5268 62.4021 30 63.6739 30 65C30 66.3261 30.5268 67.5979 31.4645 68.5355C32.4021 69.4732 33.6739 70 35 70H40C40 72.6522 41.0536 75.1957 42.9289 77.0711C44.8043 78.9464 47.3478 80 50 80V85C50 86.3261 50.5268 87.5979 51.4645 88.5355C52.4021 89.4732 53.6739 90 55 90C56.3261 90 57.5979 89.4732 58.5355 88.5355C59.4732 87.5979 60 86.3261 60 85V80H70V85C70 86.3261 70.5268 87.5979 71.4645 88.5355C72.4021 89.4732 73.6739 90 75 90C76.3261 90 77.5979 89.4732 78.5355 88.5355C79.4732 87.5979 80 86.3261 80 85V80C82.6522 80 85.1957 78.9464 87.0711 77.0711C88.9464 75.1957 90 72.6522 90 70H95C96.3261 70 97.5979 69.4732 98.5355 68.5355C99.4732 67.5979 100 66.3261 100 65C100 63.6739 99.4732 62.4021 98.5355 61.4645C97.5979 60.5268 96.3261 60 95 60H90V50H95C96.3261 50 97.5979 49.4732 98.5355 48.5355C99.4732 47.5979 100 46.3261 100 45C100 43.6739 99.4732 42.4021 98.5355 41.4645C97.5979 40.5268 96.3261 40 95 40H90C90 37.3478 88.9464 34.8043 87.0711 32.9289C85.1957 31.0536 82.6522 30 80 30V25C80 23.6739 79.4732 22.4021 78.5355 21.4645C77.5979 20.5268 76.3261 20 75 20C73.6739 20 72.4021 20.5268 71.4645 21.4645C70.5268 22.4021 70 23.6739 70 25V30H60V25C60 23.6739 59.4732 22.4021 58.5355 21.4645C57.5979 20.5268 56.3261 20 55 20C53.6739 20 52.4021 20.5268 51.4645 21.4645C50.5268 22.4021 50 23.6739 50 25V30C47.3478 30 44.8043 31.0536 42.9289 32.9289C41.0536 34.8043 40 37.3478 40 40ZM110 115V125C110 126.326 110.527 127.598 111.464 128.536C112.402 129.473 113.674 130 115 130H135C136.326 130 137.598 129.473 138.536 128.536C139.473 127.598 140 126.326 140 125V115C140 113.674 139.473 112.402 138.536 111.464C137.598 110.527 136.326 110 135 110H115C113.674 110 112.402 110.527 111.464 111.464C110.527 112.402 110 113.674 110 115Z" fill="url(#paint0_linear_315_461)"/>
<defs>
<linearGradient id="paint0_linear_315_461" x1="80" y1="0" x2="80" y2="150" gradientUnits="userSpaceOnUse">
<stop stop-color="#35C0E3"/>
<stop offset="1" stop-color="#3492D4"/>
</linearGradient>
</defs>
</svg>
