<svg width="139" height="94" viewBox="0 0 139 94" fill="none" xmlns="http://www.w3.org/2000/svg">
<path d="M137.096 29.2736C137.762 28.6328 138.276 27.852 138.602 26.9881C138.927 26.1241 139.056 25.1987 138.978 24.279C138.9 23.3594 138.617 22.4686 138.151 21.6714C137.685 20.8742 137.046 20.1907 136.281 19.6705C116.407 6.79572 93.2072 -0.0384529 69.5075 0.000162743C44.8842 0.000162743 21.9411 7.21863 2.73361 19.6705C1.96521 20.1876 1.32277 20.8699 0.853535 21.6672C0.384297 22.4645 0.10018 23.3565 0.0220662 24.2777C-0.0560474 25.1989 0.0738279 26.1258 0.402147 26.9904C0.730465 27.8549 1.24888 28.6351 1.91929 29.2736C3.02061 30.3456 4.45457 31.0124 5.9859 31.1646C7.51723 31.3168 9.05497 30.9455 10.3468 30.1115C28.0036 18.8334 48.5395 12.8555 69.5075 12.8903C90.4712 12.858 111.002 18.8357 128.655 30.1115C131.318 31.813 134.86 31.5036 137.096 29.2736ZM108.879 57.4128C111.8 54.4996 111.27 49.6142 107.587 47.7452C95.7918 41.7596 82.7416 38.6496 69.5075 38.6705C55.8064 38.6705 42.8548 41.9446 31.4286 47.7452C27.7447 49.6142 27.2148 54.4996 30.136 57.4128L30.3299 57.6061C32.398 59.6685 35.5906 60.0552 38.2275 58.7662C47.9634 54.0077 58.6652 51.5425 69.5075 51.5606C80.727 51.5606 91.3519 54.1516 100.788 58.7791C103.412 60.0681 106.604 59.6814 108.672 57.6061L108.879 57.4128ZM83.2087 83.0125C85.7422 80.4861 85.768 76.3097 82.6917 74.5051C78.7039 72.1379 74.1483 70.8908 69.5075 70.8958C64.8668 70.8908 60.3111 72.1379 56.3234 74.5051C53.2471 76.3097 53.2729 80.4861 55.8064 83.0125L64.9319 92.113C66.1438 93.3212 67.7874 94 69.5011 94C71.2148 94 72.8583 93.3212 74.0703 92.113L83.2087 83.0125Z" fill="url(#paint0_linear_315_466)"/>
<defs>
<linearGradient id="paint0_linear_315_466" x1="69.5" y1="0" x2="69.5" y2="94" gradientUnits="userSpaceOnUse">
<stop stop-color="#35C0E3"/>
<stop offset="1" stop-color="#3492D4"/>
</linearGradient>
</defs>
</svg>
