<svg width="222" height="150" viewBox="0 0 222 150" fill="none" xmlns="http://www.w3.org/2000/svg">
<path d="M218.77 46.7132C219.833 45.6906 220.654 44.4447 221.173 43.066C221.693 41.6874 221.898 40.2106 221.773 38.7431C221.649 37.2756 221.198 35.8541 220.454 34.582C219.709 33.31 218.69 32.2192 217.47 31.3891C185.756 10.8442 148.735 -0.0613609 110.916 0.000259697C71.6237 0.000259697 35.0124 11.5191 4.36214 31.3891C3.13597 32.2143 2.11081 33.3031 1.36202 34.5754C0.61324 35.8476 0.159861 37.2711 0.0352121 38.7411C-0.0894373 40.211 0.117811 41.6902 0.641723 43.0698C1.16564 44.4494 1.9929 45.6944 3.0627 46.7132C4.82011 48.4238 7.10836 49.4878 9.55197 49.7307C11.9956 49.9737 14.4494 49.3811 16.5109 48.0503C44.6866 30.0533 77.4567 20.5141 110.916 20.5696C144.369 20.5181 177.131 30.057 205.301 48.0503C209.55 50.7654 215.202 50.2717 218.77 46.7132ZM173.743 91.6161C178.405 86.9674 177.559 79.1717 171.681 76.1891C152.859 66.6377 132.034 61.6749 110.916 61.7083C89.0527 61.7083 68.3854 66.9329 50.152 76.1891C44.2735 79.1717 43.4279 86.9674 48.0894 91.6161L48.3987 91.9246C51.6989 95.2157 56.7935 95.8328 61.0013 93.7759C76.5374 86.1825 93.6146 82.2487 110.916 82.2776C128.82 82.2776 145.774 86.4121 160.831 93.7965C165.018 95.8534 170.113 95.2363 173.413 91.9246L173.743 91.6161ZM132.78 132.467C136.823 128.435 136.864 121.771 131.955 118.891C125.591 115.114 118.322 113.124 110.916 113.132C103.511 113.124 96.2412 115.114 89.8777 118.891C84.9687 121.771 85.01 128.435 89.0527 132.467L103.615 146.989C105.549 148.917 108.171 150 110.906 150C113.641 150 116.263 148.917 118.197 146.989L132.78 132.467Z" fill="url(#paint0_linear_315_466)"/>
<defs>
<linearGradient id="paint0_linear_315_466" x1="110.904" y1="0" x2="110.904" y2="150" gradientUnits="userSpaceOnUse">
<stop stop-color="#35C0E3"/>
<stop offset="1" stop-color="#3492D4"/>
</linearGradient>
</defs>
</svg>
