<svg width="150" height="102" viewBox="0 0 150 102" fill="none" xmlns="http://www.w3.org/2000/svg">
<path d="M147.945 31.5902C148.664 30.8987 149.219 30.0561 149.57 29.1238C149.922 28.1915 150.06 27.1928 149.976 26.2004C149.892 25.2079 149.587 24.2467 149.084 23.3864C148.58 22.5262 147.891 21.7885 147.066 21.2271C125.619 7.33351 100.583 -0.0414959 75.0081 0.000175622C48.4362 0.000175622 23.6775 7.78989 2.94994 21.2271C2.12073 21.7852 1.42745 22.5215 0.921081 23.3819C0.414709 24.2423 0.108108 25.2049 0.0238125 26.199C-0.0604828 27.1931 0.0796704 28.1934 0.433971 29.1263C0.788272 30.0593 1.34771 30.9012 2.07118 31.5902C3.25965 32.747 4.80709 33.4666 6.4596 33.6309C8.11212 33.7951 9.77155 33.3944 11.1656 32.4944C30.2197 20.3238 52.3808 13.8729 75.0081 13.9104C97.6308 13.8755 119.787 20.3263 138.837 32.4944C141.71 34.3306 145.532 33.9967 147.945 31.5902ZM117.495 61.9562C120.648 58.8125 120.076 53.5406 116.101 51.5236C103.372 45.0643 89.2895 41.7082 75.0081 41.7308C60.2227 41.7308 46.2462 45.264 33.9157 51.5236C29.9404 53.5406 29.3685 58.8125 32.5209 61.9562L32.7301 62.1649C34.9619 64.3905 38.4071 64.8078 41.2526 63.4168C51.7591 58.2817 63.3077 55.6214 75.0081 55.641C87.1155 55.641 98.5812 58.4369 108.764 63.4307C111.595 64.8217 115.04 64.4044 117.272 62.1649L117.495 61.9562ZM89.7936 89.5819C92.5275 86.8555 92.5554 82.3486 89.2357 80.4011C84.9323 77.8467 80.0161 76.5009 75.0081 76.5063C70.0001 76.5009 65.084 77.8467 60.7806 80.4011C57.4609 82.3486 57.4888 86.8555 60.2227 89.5819L70.0704 99.4025C71.3782 100.706 73.1518 101.439 75.0012 101.439C76.8505 101.439 78.6241 100.706 79.932 99.4025L89.7936 89.5819Z" fill="url(#paint0_linear_315_466)"/>
<defs>
<linearGradient id="paint0_linear_315_466" x1="75" y1="0" x2="75" y2="101.439" gradientUnits="userSpaceOnUse">
<stop stop-color="#35C0E3"/>
<stop offset="1" stop-color="#3492D4"/>
</linearGradient>
</defs>
</svg>
