<svg width="18" height="18" viewBox="0 0 20 20" fill="none" xmlns="http://www.w3.org/2000/svg">
<path d="M17.4669 18.4956L18.515 17.4515L10.4802 9.42184C10.7962 9.00751 11.0374 8.54761 11.2038 8.04213C11.3701 7.53664 11.4533 7.01045 11.4533 6.46353C11.4533 5.08796 10.9667 3.91541 9.99358 2.94588C9.02043 1.97635 7.84349 1.49158 6.46277 1.49158C6.27978 1.49158 6.06352 1.50401 5.81399 1.52887C5.56447 1.55373 5.34821 1.59931 5.16522 1.6656L8.58375 5.07139L5.04046 8.57661L1.64688 5.19569C1.58034 5.36142 1.53875 5.56444 1.52212 5.80475C1.50548 6.04506 1.49717 6.27294 1.49717 6.48839C1.49717 7.86397 1.97959 9.03237 2.94443 9.99362C3.90927 10.9549 5.08205 11.4355 6.46277 11.4355C7.01173 11.4355 7.53989 11.3526 8.04727 11.1869C8.55464 11.0212 9.01627 10.7808 9.43215 10.466L17.4669 18.4956ZM3.14405 1.39215C3.14405 0.894951 3.39774 0.538628 3.90511 0.323177C4.41248 0.107726 5.26503 0 6.46277 0C8.276 0 9.8106 0.625637 11.0666 1.87691C12.3225 3.12818 12.9505 4.65706 12.9505 6.46353C12.9505 6.96073 12.9006 7.44135 12.8008 7.9054C12.701 8.36945 12.5512 8.80035 12.3516 9.1981L19.563 16.3826C19.8458 16.6643 19.9913 17.0124 19.9996 17.4267C20.008 17.841 19.8707 18.1973 19.5879 18.4956L18.5649 19.5398C18.2821 19.8381 17.9286 19.9914 17.5044 19.9997C17.0802 20.008 16.7184 19.8629 16.4189 19.5646L9.18262 12.3304C8.7501 12.5293 8.30511 12.6785 7.84765 12.7779C7.39018 12.8773 6.93687 12.9271 6.48772 12.9271C4.67448 12.9271 3.13989 12.3014 1.88393 11.0502C0.627978 9.79888 0 8.27001 0 6.46353C0 5.27027 0.10397 4.42089 0.31191 3.91541C0.519849 3.40993 0.873347 3.15719 1.3724 3.15719C1.48885 3.15719 1.60114 3.18205 1.70926 3.23177C1.81739 3.28149 1.91305 3.34778 1.99622 3.43064L5.04046 6.46353L6.46277 5.07139L3.41853 2.01364C3.33535 1.93077 3.26881 1.83548 3.21891 1.72775C3.169 1.62003 3.14405 1.50816 3.14405 1.39215Z" fill="white"/>
</svg>
