<svg width="16" height="16" viewBox="0 0 16 16" fill="none" xmlns="http://www.w3.org/2000/svg">
<path d="M14.024 10.717L11.907 10.475C11.6582 10.4458 11.406 10.4733 11.1694 10.5556C10.9328 10.6379 10.718 10.7727 10.541 10.95L9.007 12.483C6.64207 11.2797 4.71986 9.35715 3.517 6.992L5.057 5.45C5.417 5.092 5.592 4.592 5.533 4.083L5.292 1.983C5.24462 1.57624 5.04925 1.20112 4.74313 0.92911C4.437 0.657101 4.04151 0.507212 3.632 0.507999H2.192C1.25 0.507999 0.467001 1.292 0.525001 2.233C0.967001 9.35 6.658 15.033 13.767 15.475C14.707 15.533 15.491 14.75 15.491 13.808V12.367C15.4931 11.9596 15.3446 11.5658 15.074 11.2612C14.8034 10.9567 14.4288 10.7629 14.024 10.717Z" fill="url(#paint0_linear_340_5)"/>
<defs>
<linearGradient id="paint0_linear_340_5" x1="8.0065" y1="0.507996" x2="8.0065" y2="15.478" gradientUnits="userSpaceOnUse">
<stop stop-color="#35C0E3"/>
<stop offset="1" stop-color="#3492D4"/>
</linearGradient>
</defs>
</svg>
