<svg width="114" height="106" viewBox="0 0 114 106" fill="none" xmlns="http://www.w3.org/2000/svg">
<path d="M4.14061 87.7534L15.2486 98.8614C16.4657 100.078 17.7144 100.698 18.9948 100.721C20.258 100.726 21.459 100.159 22.598 99.0202C23.7539 97.8643 24.3292 96.6547 24.3239 95.3915C24.3015 94.1112 23.6817 92.8625 22.4646 91.6454L11.3566 80.5374L14.9519 76.9421L26.0342 88.0244C27.5598 89.55 28.5225 91.1757 28.9224 92.9015C29.3221 94.5931 29.2352 96.2571 28.6617 97.8934C28.1051 99.5127 27.1554 100.994 25.8125 102.337C24.4866 103.663 23.014 104.604 21.3947 105.16C19.7923 105.7 18.1539 105.761 16.4792 105.345C14.7875 104.911 13.1788 103.931 11.6531 102.405L0.57085 91.3231L4.14061 87.7534Z" fill="#BDBDBD"/>
<path d="M51.571 76.2183L48.0013 79.788L27.6018 75.5545L39.9183 87.871L36.3486 91.4407L18.3752 73.4674L21.9449 69.8976L42.3701 74.1569L30.0279 61.8147L33.5977 58.2449L51.571 76.2183Z" fill="#BDBDBD"/>
<path d="M44.2478 47.6462L46.8476 50.2461L43.3207 53.773L58.6685 69.1208L55.0987 72.6906L37.1511 54.7429L44.2478 47.6462Z" fill="#BDBDBD"/>
<path d="M47.8175 44.0765L65.7652 62.0241L62.1954 65.5939L46.8476 50.2461L44.2478 47.6462L47.8175 44.0765Z" fill="#BDBDBD"/>
<path d="M84.5146 43.2747L80.9448 46.8445L60.5454 42.6109L72.8619 54.9274L69.2921 58.4972L51.3187 40.5238L54.8885 36.9541L75.3137 41.2133L62.9715 28.8711L66.5412 25.3013L84.5146 43.2747Z" fill="#BDBDBD"/>
<path d="M81.0844 10.8096L83.99 13.7152L76.57 21.1352L81.1726 25.7378L86.8587 20.0517L89.7128 22.9058L84.0267 28.5919L91.6121 36.1772L88.0423 39.747L70.0946 21.7993L81.0844 10.8096Z" fill="#BDBDBD"/>
<path d="M110.005 18.1445C108.339 19.8104 106.415 20.946 104.232 21.5514C102.05 22.1568 99.8564 22.1732 97.652 21.6006C95.4304 21.0109 93.4368 19.8333 91.6712 18.0676C89.9227 16.3192 88.7622 14.3427 88.1896 12.1382C87.5999 9.91666 87.6077 7.71465 88.2131 5.53221C88.8185 3.34977 89.9541 1.42561 91.62 -0.24028C93.3029 -1.92317 95.2271 -3.05879 97.3925 -3.64717C99.5749 -4.25254 101.768 -4.25188 103.973 -3.64518C106.177 -3.07263 108.154 -1.9121 109.902 -0.163622C111.668 1.602 112.846 3.5956 113.435 5.81719C114.025 8.00464 114.017 10.1896 113.412 12.372C112.806 14.5544 111.671 16.4786 110.005 18.1445ZM106.791 14.9304C107.862 13.8594 108.565 12.676 108.901 11.3801C109.22 10.0671 109.154 8.72676 108.705 7.35927C108.255 5.99178 107.431 4.70806 106.231 3.50812C105.031 2.30818 103.756 1.49201 102.405 1.05959C101.038 0.610035 99.706 0.55325 98.4101 0.889219C97.1142 1.22519 95.9308 1.92863 94.8598 2.99955C93.7889 4.07048 93.077 5.26241 92.724 6.57533C92.388 7.87125 92.4448 9.20296 92.8944 10.5704C93.3268 11.9208 94.143 13.1959 95.3429 14.3959C96.5428 15.5958 97.8266 16.4206 99.1941 16.8701C100.562 17.3197 101.902 17.385 103.215 17.0662C104.528 16.7133 105.72 16.0013 106.791 14.9304Z" fill="#BDBDBD"/>
</svg>
