<svg width="64" height="100" viewBox="0 0 64 100" fill="none" xmlns="http://www.w3.org/2000/svg">
<path d="M30.329 0.704467L20.6265 15.2614C20.4688 15.4996 20.3786 15.7761 20.3653 16.0615C20.3521 16.3469 20.4164 16.6306 20.5514 16.8824C20.6864 17.1342 20.887 17.3447 21.132 17.4917C21.377 17.6387 21.6573 17.7165 21.943 17.7171H28.4809V64.0397C27.4734 63.2835 26.3792 62.6503 25.2215 62.1536L18.4113 59.2359C16.7025 58.5034 15.2463 57.2852 14.2236 55.7325C13.2009 54.1798 12.6566 52.361 12.6582 50.5018V48.8182C14.7696 48.0717 16.5492 46.6028 17.6823 44.6712C18.8155 42.7395 19.2293 40.4694 18.8506 38.2621C18.4719 36.0549 17.3251 34.0526 15.6128 32.6091C13.9006 31.1656 11.7332 30.3739 9.49366 30.3739C7.25415 30.3739 5.08674 31.1656 3.3745 32.6091C1.66226 34.0526 0.515447 36.0549 0.136742 38.2621C-0.241964 40.4694 0.171827 42.7395 1.30498 44.6712C2.43813 46.6028 4.21768 48.0717 6.32911 48.8182V50.5018C6.32883 53.5984 7.23719 56.627 8.9416 59.2123C10.646 61.7976 13.0716 63.826 15.9177 65.046L22.7278 67.9637C24.1875 68.5896 25.4669 69.5717 26.4488 70.82C27.4307 72.0684 28.0837 73.5432 28.348 75.1093C25.3778 75.9117 22.8013 77.7679 21.0997 80.3312C19.3981 82.8945 18.6878 85.9896 19.1015 89.0383C19.5152 92.0871 21.0245 94.881 23.3477 96.8982C25.6708 98.9153 28.6488 100.018 31.7254 99.9998C34.802 99.9817 37.7669 98.8443 40.0661 96.7999C42.3654 94.7556 43.8418 91.9441 44.2196 88.8907C44.5975 85.8373 43.8508 82.7508 42.1192 80.2077C40.3876 77.6646 37.7895 75.8388 34.81 75.0713V69.3625C34.8095 67.688 35.2518 66.0432 36.0921 64.5948C36.9324 63.1465 38.1408 61.9462 39.5948 61.1157L48.9872 55.7486C51.2592 54.4511 53.174 52.6105 54.5602 50.3915C55.9464 48.1725 56.7607 45.6443 56.9302 43.0334H61.7087C62.1283 43.0334 62.5308 42.8667 62.8275 42.57C63.1242 42.2733 63.2909 41.8708 63.2909 41.4512V25.6284C63.2909 25.2088 63.1242 24.8063 62.8275 24.5096C62.5308 24.2129 62.1283 24.0462 61.7087 24.0462H45.8859C45.4663 24.0462 45.0638 24.2129 44.7671 24.5096C44.4704 24.8063 44.3037 25.2088 44.3037 25.6284V41.4512C44.3037 42.3246 45.0125 43.0334 45.8859 43.0334H50.5758C50.4154 44.5262 49.9033 45.9597 49.0814 47.2161C48.2595 48.4726 47.1514 49.5162 45.848 50.2613L36.4556 55.6283C35.886 55.9537 35.3365 56.3129 34.81 56.7043V17.7171H41.348C41.6347 17.7173 41.9161 17.6396 42.1621 17.4923C42.4081 17.3451 42.6094 17.1337 42.7446 16.8809C42.8798 16.628 42.9437 16.3432 42.9296 16.0569C42.9155 15.7705 42.8238 15.4934 42.6644 15.2551L32.9619 0.704467C32.8174 0.487762 32.6217 0.31008 32.392 0.187189C32.1624 0.0642985 31.9059 0 31.6455 0C31.385 0 31.1286 0.0642985 30.8989 0.187189C30.6693 0.31008 30.4735 0.487762 30.329 0.704467Z" fill="url(#paint0_linear_302_5)"/>
<defs>
<linearGradient id="paint0_linear_302_5" x1="31.6455" y1="0" x2="31.6455" y2="100" gradientUnits="userSpaceOnUse">
<stop stop-color="#35C0E3"/>
<stop offset="1" stop-color="#3492D4"/>
</linearGradient>
</defs>
</svg>
