<svg width="148" height="100" viewBox="0 0 148 100" fill="none" xmlns="http://www.w3.org/2000/svg">
<path d="M145.847 31.1422C146.555 30.4604 147.102 29.6298 147.449 28.7107C147.795 27.7916 147.932 26.8071 147.849 25.8287C147.766 24.8504 147.465 23.9027 146.969 23.0547C146.473 22.2066 145.794 21.4795 144.98 20.9261C123.837 7.22949 99.1566 -0.0409073 73.9442 0.000173131C47.7491 0.000173131 23.3416 7.67939 2.9081 20.9261C2.09064 21.4762 1.4072 22.2021 0.908016 23.0502C0.408827 23.8984 0.106574 24.8474 0.0234747 25.8274C-0.0596248 26.8074 0.0785403 27.7934 0.427816 28.7132C0.777091 29.6329 1.3286 30.4629 2.0418 31.1422C3.21341 32.2825 4.7389 32.9919 6.36798 33.1538C7.99705 33.3158 9.63295 32.9207 11.0073 32.0335C29.791 20.0355 51.6378 13.6761 73.9442 13.7131C96.2459 13.6787 118.088 20.038 136.867 32.0335C139.7 33.8436 143.468 33.5145 145.847 31.1422ZM115.829 61.0774C118.936 57.9783 118.373 52.7811 114.454 50.7927C101.906 44.4251 88.0229 41.1166 73.9442 41.1389C59.3685 41.1389 45.5903 44.6219 33.4346 50.7927C29.5157 52.7811 28.9519 57.9783 32.0596 61.0774L32.2658 61.2831C34.4659 63.4772 37.8624 63.8885 40.6675 62.5173C51.0249 57.455 62.4097 54.8325 73.9442 54.8518C85.8798 54.8518 97.1829 57.608 107.221 62.531C110.012 63.9023 113.409 63.4909 115.609 61.2831L115.829 61.0774ZM88.5199 88.3112C91.2151 85.6235 91.2426 81.1805 87.9699 79.2607C83.7276 76.7425 78.8811 75.4158 73.9442 75.4211C69.0072 75.4158 64.1608 76.7425 59.9185 79.2607C56.6458 81.1805 56.6733 85.6235 59.3685 88.3112L69.0764 97.9925C70.3658 99.2779 72.1142 100 73.9373 100C75.7604 100 77.5089 99.2779 78.7982 97.9925L88.5199 88.3112Z" fill="url(#paint0_linear_315_466)"/>
<defs>
<linearGradient id="paint0_linear_315_466" x1="73.9362" y1="0" x2="73.9362" y2="100" gradientUnits="userSpaceOnUse">
<stop stop-color="#35C0E3"/>
<stop offset="1" stop-color="#3492D4"/>
</linearGradient>
</defs>
</svg>
